<mxfile host="Electron" modified="2024-02-13T09:38:44.074Z" agent="Mozilla/5.0 (Windows NT 10.0; Win64; x64) AppleWebKit/537.36 (KHTML, like Gecko) draw.io/22.1.2 Chrome/114.0.5735.289 Electron/25.9.4 Safari/537.36" etag="OFEe988pg4mZi_CrL2nU" version="22.1.2" type="device">
  <diagram id="C5RBs43oDa-KdzZeNtuy" name="Page-1">
    <mxGraphModel dx="1104" dy="516" grid="0" gridSize="10" guides="1" tooltips="1" connect="1" arrows="1" fold="1" page="1" pageScale="1" pageWidth="827" pageHeight="1169" math="0" shadow="0">
      <root>
        <mxCell id="WIyWlLk6GJQsqaUBKTNV-0" />
        <mxCell id="WIyWlLk6GJQsqaUBKTNV-1" parent="WIyWlLk6GJQsqaUBKTNV-0" />
        <mxCell id="fcfBr75-EH2accf7WCkU-4" value="EXTERIEUR" style="swimlane;whiteSpace=wrap;html=1;fontStyle=0" parent="WIyWlLk6GJQsqaUBKTNV-1" vertex="1">
          <mxGeometry x="20" y="140" width="210" height="460" as="geometry" />
        </mxCell>
        <mxCell id="fcfBr75-EH2accf7WCkU-99" value="" style="endArrow=none;html=1;rounded=0;exitX=0.75;exitY=1;exitDx=0;exitDy=0;fontStyle=0" parent="fcfBr75-EH2accf7WCkU-4" edge="1">
          <mxGeometry width="50" height="50" relative="1" as="geometry">
            <mxPoint x="130" y="100" as="sourcePoint" />
            <mxPoint x="130" y="170" as="targetPoint" />
          </mxGeometry>
        </mxCell>
        <mxCell id="fcfBr75-EH2accf7WCkU-100" value="" style="endArrow=none;html=1;rounded=0;fontStyle=0" parent="fcfBr75-EH2accf7WCkU-4" edge="1">
          <mxGeometry width="50" height="50" relative="1" as="geometry">
            <mxPoint x="110" y="200" as="sourcePoint" />
            <mxPoint x="110" y="100" as="targetPoint" />
          </mxGeometry>
        </mxCell>
        <mxCell id="fcfBr75-EH2accf7WCkU-101" value="" style="endArrow=classic;html=1;rounded=0;fontStyle=0" parent="fcfBr75-EH2accf7WCkU-4" edge="1">
          <mxGeometry width="50" height="50" relative="1" as="geometry">
            <mxPoint x="130" y="170" as="sourcePoint" />
            <mxPoint x="270" y="170" as="targetPoint" />
          </mxGeometry>
        </mxCell>
        <mxCell id="fcfBr75-EH2accf7WCkU-154" value="" style="endArrow=classic;html=1;rounded=0;entryX=0.5;entryY=1;entryDx=0;entryDy=0;fontStyle=0" parent="fcfBr75-EH2accf7WCkU-4" edge="1">
          <mxGeometry width="50" height="50" relative="1" as="geometry">
            <mxPoint x="100" y="410" as="sourcePoint" />
            <mxPoint x="100" y="100" as="targetPoint" />
          </mxGeometry>
        </mxCell>
        <mxCell id="fcfBr75-EH2accf7WCkU-155" value="" style="endArrow=none;html=1;rounded=0;fontStyle=0" parent="fcfBr75-EH2accf7WCkU-4" edge="1">
          <mxGeometry width="50" height="50" relative="1" as="geometry">
            <mxPoint x="100" y="410" as="sourcePoint" />
            <mxPoint x="700" y="410" as="targetPoint" />
          </mxGeometry>
        </mxCell>
        <mxCell id="fcfBr75-EH2accf7WCkU-156" value="" style="endArrow=none;html=1;rounded=0;entryX=0.333;entryY=1;entryDx=0;entryDy=0;entryPerimeter=0;fontStyle=0" parent="fcfBr75-EH2accf7WCkU-4" edge="1">
          <mxGeometry width="50" height="50" relative="1" as="geometry">
            <mxPoint x="80" y="430" as="sourcePoint" />
            <mxPoint x="79.96000000000004" y="100" as="targetPoint" />
          </mxGeometry>
        </mxCell>
        <mxCell id="fcfBr75-EH2accf7WCkU-157" value="" style="endArrow=none;html=1;rounded=0;fontStyle=0" parent="fcfBr75-EH2accf7WCkU-4" edge="1">
          <mxGeometry width="50" height="50" relative="1" as="geometry">
            <mxPoint x="80" y="430" as="sourcePoint" />
            <mxPoint x="1110" y="430" as="targetPoint" />
          </mxGeometry>
        </mxCell>
        <mxCell id="fcfBr75-EH2accf7WCkU-41" value="RH" style="swimlane;whiteSpace=wrap;html=1;fontStyle=0" parent="WIyWlLk6GJQsqaUBKTNV-1" vertex="1">
          <mxGeometry x="230" y="140" width="370" height="460" as="geometry" />
        </mxCell>
        <mxCell id="fcfBr75-EH2accf7WCkU-51" value="&lt;font style=&quot;font-size: 10px;&quot;&gt;&lt;span&gt;&amp;nbsp; &amp;nbsp; Après les phases de recrutement&lt;/span&gt;&lt;/font&gt;" style="shape=parallelogram;html=1;strokeWidth=2;perimeter=parallelogramPerimeter;whiteSpace=wrap;rounded=1;arcSize=12;size=0.23;fontStyle=0" parent="fcfBr75-EH2accf7WCkU-41" vertex="1">
          <mxGeometry x="70" y="40" width="140" height="30" as="geometry" />
        </mxCell>
        <mxCell id="fcfBr75-EH2accf7WCkU-52" value="&lt;font size=&quot;1&quot; style=&quot;&quot;&gt;&lt;span style=&quot;font-size: 9px;&quot;&gt;T1: ETABLISSEMENT DOCUMENTS DE GARANTIE&lt;/span&gt;&lt;/font&gt;" style="rounded=0;whiteSpace=wrap;html=1;absoluteArcSize=1;arcSize=14;strokeWidth=2;fontStyle=0" parent="fcfBr75-EH2accf7WCkU-41" vertex="1">
          <mxGeometry x="30" y="90" width="240" height="20" as="geometry" />
        </mxCell>
        <mxCell id="fcfBr75-EH2accf7WCkU-55" value="&lt;font style=&quot;font-size: 9px;&quot;&gt;&lt;span&gt;Document&lt;br&gt;&amp;nbsp;garantie&lt;br&gt;&amp;nbsp;signé ?&lt;/span&gt;&lt;/font&gt;" style="rhombus;whiteSpace=wrap;html=1;fontStyle=0" parent="fcfBr75-EH2accf7WCkU-41" vertex="1">
          <mxGeometry x="164" y="210" width="90" height="60" as="geometry" />
        </mxCell>
        <mxCell id="fcfBr75-EH2accf7WCkU-56" value="&lt;font style=&quot;font-size: 10px;&quot;&gt;&lt;span&gt;T2: EDITION DE L&#39;AUTORISATION DE SORTIE&lt;/span&gt;&lt;/font&gt;" style="rounded=0;whiteSpace=wrap;html=1;absoluteArcSize=1;arcSize=14;strokeWidth=2;fontStyle=0" parent="fcfBr75-EH2accf7WCkU-41" vertex="1">
          <mxGeometry x="110" y="290" width="230" height="20" as="geometry" />
        </mxCell>
        <mxCell id="fcfBr75-EH2accf7WCkU-57" value="&lt;font style=&quot;font-size: 10px;&quot;&gt;&lt;span&gt;T3: REFUS&amp;nbsp; DE L&#39;AUTORISATION DE SORTIE&lt;/span&gt;&lt;/font&gt;" style="rounded=0;whiteSpace=wrap;html=1;absoluteArcSize=1;arcSize=14;strokeWidth=2;fontStyle=0" parent="fcfBr75-EH2accf7WCkU-41" vertex="1">
          <mxGeometry y="320" width="240" height="20" as="geometry" />
        </mxCell>
        <mxCell id="fcfBr75-EH2accf7WCkU-66" value="&lt;font style=&quot;font-size: 9px;&quot;&gt;D1&lt;/font&gt;" style="strokeWidth=2;html=1;shape=mxgraph.flowchart.document2;whiteSpace=wrap;size=0.25;fontStyle=0" parent="fcfBr75-EH2accf7WCkU-41" vertex="1">
          <mxGeometry x="60" y="190" width="20" height="20" as="geometry" />
        </mxCell>
        <mxCell id="fcfBr75-EH2accf7WCkU-70" value="&lt;font style=&quot;font-size: 9px;&quot;&gt;&lt;span&gt;D2&lt;/span&gt;&lt;/font&gt;" style="strokeWidth=2;html=1;shape=mxgraph.flowchart.document2;whiteSpace=wrap;size=0.25;fontStyle=0" parent="fcfBr75-EH2accf7WCkU-41" vertex="1">
          <mxGeometry x="60" y="159" width="20" height="20" as="geometry" />
        </mxCell>
        <mxCell id="fcfBr75-EH2accf7WCkU-65" value="&lt;font style=&quot;font-size: 9px;&quot;&gt;D3&lt;/font&gt;" style="strokeWidth=2;html=1;shape=mxgraph.flowchart.document2;whiteSpace=wrap;size=0.25;fontStyle=0" parent="fcfBr75-EH2accf7WCkU-41" vertex="1">
          <mxGeometry x="300" y="340" width="20" height="20" as="geometry" />
        </mxCell>
        <mxCell id="fcfBr75-EH2accf7WCkU-85" value="" style="endArrow=classic;html=1;rounded=0;exitX=0.5;exitY=1;exitDx=0;exitDy=0;fontStyle=0" parent="fcfBr75-EH2accf7WCkU-41" source="fcfBr75-EH2accf7WCkU-51" edge="1">
          <mxGeometry width="50" height="50" relative="1" as="geometry">
            <mxPoint x="160" y="240" as="sourcePoint" />
            <mxPoint x="140" y="90" as="targetPoint" />
          </mxGeometry>
        </mxCell>
        <mxCell id="fcfBr75-EH2accf7WCkU-46" value="&lt;span&gt;&lt;font style=&quot;font-size: 10px;&quot;&gt;D1&lt;/font&gt;&lt;/span&gt;" style="strokeWidth=2;html=1;shape=mxgraph.flowchart.document2;whiteSpace=wrap;size=0.25;fontStyle=0" parent="fcfBr75-EH2accf7WCkU-41" vertex="1">
          <mxGeometry x="140" y="139" width="20" height="20" as="geometry" />
        </mxCell>
        <mxCell id="fcfBr75-EH2accf7WCkU-103" value="" style="endArrow=classic;html=1;rounded=0;entryX=0;entryY=0.5;entryDx=0;entryDy=0;entryPerimeter=0;fontStyle=0" parent="fcfBr75-EH2accf7WCkU-41" target="fcfBr75-EH2accf7WCkU-66" edge="1">
          <mxGeometry width="50" height="50" relative="1" as="geometry">
            <mxPoint x="-100" y="200" as="sourcePoint" />
            <mxPoint x="50" y="200" as="targetPoint" />
          </mxGeometry>
        </mxCell>
        <mxCell id="fcfBr75-EH2accf7WCkU-117" value="&lt;font style=&quot;font-size: 10px;&quot;&gt;&lt;span&gt;Oui&lt;/span&gt;&lt;/font&gt;" style="text;html=1;strokeColor=none;fillColor=none;align=center;verticalAlign=middle;whiteSpace=wrap;rounded=0;fontStyle=0" parent="fcfBr75-EH2accf7WCkU-41" vertex="1">
          <mxGeometry x="254" y="220" width="16" height="20" as="geometry" />
        </mxCell>
        <mxCell id="fcfBr75-EH2accf7WCkU-121" value="&lt;font style=&quot;font-size: 10px;&quot;&gt;&lt;span&gt;Non&lt;/span&gt;&lt;/font&gt;" style="text;html=1;strokeColor=none;fillColor=none;align=center;verticalAlign=middle;whiteSpace=wrap;rounded=0;fontStyle=0" parent="fcfBr75-EH2accf7WCkU-41" vertex="1">
          <mxGeometry x="144" y="220" width="16" height="20" as="geometry" />
        </mxCell>
        <mxCell id="fcfBr75-EH2accf7WCkU-104" value="" style="endArrow=none;html=1;rounded=0;fontStyle=0" parent="fcfBr75-EH2accf7WCkU-41" edge="1">
          <mxGeometry width="50" height="50" relative="1" as="geometry">
            <mxPoint x="80" y="168.5" as="sourcePoint" />
            <mxPoint x="310" y="169" as="targetPoint" />
          </mxGeometry>
        </mxCell>
        <mxCell id="fcfBr75-EH2accf7WCkU-128" value="" style="endArrow=classic;html=1;rounded=0;fontStyle=0" parent="fcfBr75-EH2accf7WCkU-41" edge="1">
          <mxGeometry width="50" height="50" relative="1" as="geometry">
            <mxPoint x="310" y="170" as="sourcePoint" />
            <mxPoint x="310" y="290" as="targetPoint" />
          </mxGeometry>
        </mxCell>
        <mxCell id="fcfBr75-EH2accf7WCkU-112" value="" style="endArrow=classic;html=1;rounded=0;fontStyle=0" parent="fcfBr75-EH2accf7WCkU-41" edge="1">
          <mxGeometry width="50" height="50" relative="1" as="geometry">
            <mxPoint x="290" y="240" as="sourcePoint" />
            <mxPoint x="290" y="290" as="targetPoint" />
          </mxGeometry>
        </mxCell>
        <mxCell id="fcfBr75-EH2accf7WCkU-111" value="" style="endArrow=classic;html=1;rounded=0;entryX=0.25;entryY=0;entryDx=0;entryDy=0;fontStyle=0" parent="fcfBr75-EH2accf7WCkU-41" target="fcfBr75-EH2accf7WCkU-57" edge="1">
          <mxGeometry width="50" height="50" relative="1" as="geometry">
            <mxPoint x="60" y="240" as="sourcePoint" />
            <mxPoint x="59" y="320" as="targetPoint" />
          </mxGeometry>
        </mxCell>
        <mxCell id="fcfBr75-EH2accf7WCkU-137" value="" style="endArrow=classic;html=1;rounded=0;fontStyle=0" parent="fcfBr75-EH2accf7WCkU-41" edge="1">
          <mxGeometry width="50" height="50" relative="1" as="geometry">
            <mxPoint x="311" y="310" as="sourcePoint" />
            <mxPoint x="311" y="340" as="targetPoint" />
          </mxGeometry>
        </mxCell>
        <mxCell id="fcfBr75-EH2accf7WCkU-138" value="" style="endArrow=none;html=1;rounded=0;exitX=1;exitY=0.5;exitDx=0;exitDy=0;exitPerimeter=0;fontStyle=0" parent="fcfBr75-EH2accf7WCkU-41" source="fcfBr75-EH2accf7WCkU-65" edge="1">
          <mxGeometry width="50" height="50" relative="1" as="geometry">
            <mxPoint x="360" y="350" as="sourcePoint" />
            <mxPoint x="360" y="350" as="targetPoint" />
          </mxGeometry>
        </mxCell>
        <mxCell id="fcfBr75-EH2accf7WCkU-139" value="" style="endArrow=none;html=1;rounded=0;fontStyle=0" parent="fcfBr75-EH2accf7WCkU-41" edge="1">
          <mxGeometry width="50" height="50" relative="1" as="geometry">
            <mxPoint x="360" y="350" as="sourcePoint" />
            <mxPoint x="360" y="50" as="targetPoint" />
          </mxGeometry>
        </mxCell>
        <mxCell id="fcfBr75-EH2accf7WCkU-142" value="" style="endArrow=none;html=1;rounded=0;fontStyle=0" parent="fcfBr75-EH2accf7WCkU-41" edge="1">
          <mxGeometry width="50" height="50" relative="1" as="geometry">
            <mxPoint x="90" y="400" as="sourcePoint" />
            <mxPoint x="90" y="340" as="targetPoint" />
          </mxGeometry>
        </mxCell>
        <mxCell id="fcfBr75-EH2accf7WCkU-143" value="" style="endArrow=none;html=1;rounded=0;fontStyle=0" parent="fcfBr75-EH2accf7WCkU-41" edge="1">
          <mxGeometry width="50" height="50" relative="1" as="geometry">
            <mxPoint x="90" y="400" as="sourcePoint" />
            <mxPoint x="390" y="400" as="targetPoint" />
          </mxGeometry>
        </mxCell>
        <mxCell id="fcfBr75-EH2accf7WCkU-42" value="RESPONSABLE INFRASTRUCTURE" style="swimlane;whiteSpace=wrap;html=1;fontStyle=0" parent="WIyWlLk6GJQsqaUBKTNV-1" vertex="1">
          <mxGeometry x="600" y="140" width="250" height="460" as="geometry" />
        </mxCell>
        <mxCell id="fcfBr75-EH2accf7WCkU-72" value="&lt;font style=&quot;font-size: 9px;&quot;&gt;&lt;span&gt;D3&lt;/span&gt;&lt;/font&gt;" style="strokeWidth=2;html=1;shape=mxgraph.flowchart.document2;whiteSpace=wrap;size=0.25;fontStyle=0" parent="fcfBr75-EH2accf7WCkU-42" vertex="1">
          <mxGeometry x="86" y="40" width="20" height="20" as="geometry" />
        </mxCell>
        <mxCell id="fcfBr75-EH2accf7WCkU-58" value="&lt;font style=&quot;font-size: 10px;&quot;&gt;&lt;span&gt;T4: DEMANDE DE L&#39;ACTIF INFORMATIQUE&lt;/span&gt;&lt;/font&gt;" style="rounded=0;whiteSpace=wrap;html=1;absoluteArcSize=1;arcSize=14;strokeWidth=2;fontStyle=0" parent="fcfBr75-EH2accf7WCkU-42" vertex="1">
          <mxGeometry x="6" y="100" width="240" height="20" as="geometry" />
        </mxCell>
        <mxCell id="fcfBr75-EH2accf7WCkU-76" value="&lt;span style=&quot;font-size: 10px;&quot;&gt;&lt;span&gt;Actif attribué&lt;/span&gt;&lt;/span&gt;" style="shape=parallelogram;html=1;strokeWidth=2;perimeter=parallelogramPerimeter;whiteSpace=wrap;rounded=1;arcSize=12;size=0.23;fontStyle=0" parent="fcfBr75-EH2accf7WCkU-42" vertex="1">
          <mxGeometry x="55" y="150" width="140" height="20" as="geometry" />
        </mxCell>
        <mxCell id="fcfBr75-EH2accf7WCkU-78" value="&lt;font style=&quot;font-size: 10px;&quot;&gt;&lt;span&gt;T6: REMISE DE L;ACTIF INFORMATIQUE&lt;/span&gt;&lt;/font&gt;" style="rounded=0;whiteSpace=wrap;html=1;absoluteArcSize=1;arcSize=14;strokeWidth=2;fontStyle=0" parent="fcfBr75-EH2accf7WCkU-42" vertex="1">
          <mxGeometry x="36" y="210" width="204" height="20" as="geometry" />
        </mxCell>
        <mxCell id="fcfBr75-EH2accf7WCkU-140" value="" style="endArrow=classic;html=1;rounded=0;entryX=0;entryY=0.5;entryDx=0;entryDy=0;entryPerimeter=0;fontStyle=0" parent="fcfBr75-EH2accf7WCkU-42" target="fcfBr75-EH2accf7WCkU-72" edge="1">
          <mxGeometry width="50" height="50" relative="1" as="geometry">
            <mxPoint x="-10" y="50" as="sourcePoint" />
            <mxPoint x="66" y="25" as="targetPoint" />
          </mxGeometry>
        </mxCell>
        <mxCell id="fcfBr75-EH2accf7WCkU-141" value="" style="endArrow=classic;html=1;rounded=0;fontStyle=0" parent="fcfBr75-EH2accf7WCkU-42" edge="1">
          <mxGeometry width="50" height="50" relative="1" as="geometry">
            <mxPoint x="20" y="400" as="sourcePoint" />
            <mxPoint x="20" y="120" as="targetPoint" />
          </mxGeometry>
        </mxCell>
        <mxCell id="fcfBr75-EH2accf7WCkU-145" value="" style="endArrow=classic;html=1;rounded=0;exitX=0.65;exitY=0.95;exitDx=0;exitDy=0;exitPerimeter=0;fontStyle=0" parent="fcfBr75-EH2accf7WCkU-42" edge="1">
          <mxGeometry width="50" height="50" relative="1" as="geometry">
            <mxPoint x="99" y="57" as="sourcePoint" />
            <mxPoint x="100" y="100" as="targetPoint" />
          </mxGeometry>
        </mxCell>
        <mxCell id="fcfBr75-EH2accf7WCkU-152" value="" style="endArrow=classic;html=1;rounded=0;entryX=0.407;entryY=-0.05;entryDx=0;entryDy=0;entryPerimeter=0;fontStyle=0" parent="fcfBr75-EH2accf7WCkU-42" target="fcfBr75-EH2accf7WCkU-78" edge="1">
          <mxGeometry width="50" height="50" relative="1" as="geometry">
            <mxPoint x="119" y="170" as="sourcePoint" />
            <mxPoint x="190" y="180" as="targetPoint" />
          </mxGeometry>
        </mxCell>
        <mxCell id="fcfBr75-EH2accf7WCkU-153" value="" style="endArrow=none;html=1;rounded=0;fontStyle=0" parent="fcfBr75-EH2accf7WCkU-42" edge="1">
          <mxGeometry width="50" height="50" relative="1" as="geometry">
            <mxPoint x="120" y="410" as="sourcePoint" />
            <mxPoint x="121" y="230" as="targetPoint" />
          </mxGeometry>
        </mxCell>
        <mxCell id="fcfBr75-EH2accf7WCkU-43" value="COMPTABLE" style="swimlane;whiteSpace=wrap;html=1;fontStyle=0" parent="WIyWlLk6GJQsqaUBKTNV-1" vertex="1">
          <mxGeometry x="850" y="140" width="270" height="460" as="geometry" />
        </mxCell>
        <mxCell id="fcfBr75-EH2accf7WCkU-77" value="&lt;font style=&quot;font-size: 10px;&quot;&gt;&lt;span&gt;T5: TRANSMISSION DE L&#39;ACTIF INFORMATIQUE&lt;/span&gt;&lt;/font&gt;" style="rounded=0;whiteSpace=wrap;html=1;absoluteArcSize=1;arcSize=14;strokeWidth=2;fontStyle=0" parent="fcfBr75-EH2accf7WCkU-43" vertex="1">
          <mxGeometry x="26" y="80" width="240" height="20" as="geometry" />
        </mxCell>
        <mxCell id="fcfBr75-EH2accf7WCkU-146" value="" style="endArrow=none;html=1;rounded=0;exitX=1;exitY=0.5;exitDx=0;exitDy=0;fontStyle=0" parent="fcfBr75-EH2accf7WCkU-43" source="fcfBr75-EH2accf7WCkU-58" edge="1">
          <mxGeometry width="50" height="50" relative="1" as="geometry">
            <mxPoint x="10" y="190" as="sourcePoint" />
            <mxPoint x="10" y="110" as="targetPoint" />
          </mxGeometry>
        </mxCell>
        <mxCell id="fcfBr75-EH2accf7WCkU-147" value="" style="endArrow=none;html=1;rounded=0;fontStyle=0" parent="fcfBr75-EH2accf7WCkU-43" edge="1">
          <mxGeometry width="50" height="50" relative="1" as="geometry">
            <mxPoint x="10" y="110" as="sourcePoint" />
            <mxPoint x="10" y="40" as="targetPoint" />
          </mxGeometry>
        </mxCell>
        <mxCell id="fcfBr75-EH2accf7WCkU-148" value="" style="endArrow=none;html=1;rounded=0;fontStyle=0" parent="fcfBr75-EH2accf7WCkU-43" edge="1">
          <mxGeometry width="50" height="50" relative="1" as="geometry">
            <mxPoint x="10" y="40" as="sourcePoint" />
            <mxPoint x="130" y="40" as="targetPoint" />
          </mxGeometry>
        </mxCell>
        <mxCell id="fcfBr75-EH2accf7WCkU-149" value="" style="endArrow=classic;html=1;rounded=0;entryX=0.433;entryY=0;entryDx=0;entryDy=0;entryPerimeter=0;fontStyle=0" parent="fcfBr75-EH2accf7WCkU-43" target="fcfBr75-EH2accf7WCkU-77" edge="1">
          <mxGeometry width="50" height="50" relative="1" as="geometry">
            <mxPoint x="130" y="40" as="sourcePoint" />
            <mxPoint x="190" y="20" as="targetPoint" />
          </mxGeometry>
        </mxCell>
        <mxCell id="fcfBr75-EH2accf7WCkU-44" value="DSI" style="swimlane;whiteSpace=wrap;html=1;fontStyle=0" parent="WIyWlLk6GJQsqaUBKTNV-1" vertex="1">
          <mxGeometry x="1120" y="140" width="320" height="460" as="geometry" />
        </mxCell>
        <mxCell id="fcfBr75-EH2accf7WCkU-80" value="&lt;span style=&quot;font-size: 10px;&quot;&gt;&lt;span&gt;Periode de congés&lt;/span&gt;&lt;/span&gt;" style="shape=parallelogram;html=1;strokeWidth=2;perimeter=parallelogramPerimeter;whiteSpace=wrap;rounded=1;arcSize=12;size=0.23;fontStyle=0" parent="fcfBr75-EH2accf7WCkU-44" vertex="1">
          <mxGeometry x="130" y="40" width="140" height="20" as="geometry" />
        </mxCell>
        <mxCell id="fcfBr75-EH2accf7WCkU-81" value="&lt;font size=&quot;1&quot;&gt;&lt;span&gt;Départ avec actif?&lt;/span&gt;&lt;/font&gt;" style="rhombus;whiteSpace=wrap;html=1;fontStyle=0" parent="fcfBr75-EH2accf7WCkU-44" vertex="1">
          <mxGeometry x="81" y="130" width="80" height="60" as="geometry" />
        </mxCell>
        <mxCell id="fcfBr75-EH2accf7WCkU-63" value="&lt;font style=&quot;font-size: 9px;&quot;&gt;&lt;span&gt;D5&lt;/span&gt;&lt;/font&gt;" style="strokeWidth=2;html=1;shape=mxgraph.flowchart.document2;whiteSpace=wrap;size=0.25;fontStyle=0" parent="fcfBr75-EH2accf7WCkU-44" vertex="1">
          <mxGeometry x="40" y="40" width="20" height="20" as="geometry" />
        </mxCell>
        <mxCell id="fcfBr75-EH2accf7WCkU-82" value="&lt;span style=&quot;&quot;&gt;&lt;font style=&quot;font-size: 10px;&quot;&gt;T7: AUTORISATION DE DEPART AVEC&amp;nbsp; L&#39;ACTIF&lt;/font&gt;&lt;/span&gt;" style="rounded=0;whiteSpace=wrap;html=1;absoluteArcSize=1;arcSize=14;strokeWidth=2;fontStyle=0" parent="fcfBr75-EH2accf7WCkU-44" vertex="1">
          <mxGeometry x="20" y="230" width="240" height="20" as="geometry" />
        </mxCell>
        <mxCell id="fcfBr75-EH2accf7WCkU-83" value="&lt;font style=&quot;font-size: 10px;&quot;&gt;&lt;span&gt;T8: REFUS DE DEPART AVEC L&#39;ACTIF&lt;/span&gt;&lt;/font&gt;" style="rounded=0;whiteSpace=wrap;html=1;absoluteArcSize=1;arcSize=14;strokeWidth=2;fontStyle=0" parent="fcfBr75-EH2accf7WCkU-44" vertex="1">
          <mxGeometry x="70" y="290" width="240" height="20" as="geometry" />
        </mxCell>
        <mxCell id="fcfBr75-EH2accf7WCkU-158" value="" style="endArrow=classic;html=1;rounded=0;entryX=0;entryY=0.5;entryDx=0;entryDy=0;entryPerimeter=0;fontStyle=0" parent="fcfBr75-EH2accf7WCkU-44" target="fcfBr75-EH2accf7WCkU-63" edge="1">
          <mxGeometry width="50" height="50" relative="1" as="geometry">
            <mxPoint x="10" y="50" as="sourcePoint" />
            <mxPoint x="120" y="260" as="targetPoint" />
          </mxGeometry>
        </mxCell>
        <mxCell id="fcfBr75-EH2accf7WCkU-166" value="" style="endArrow=none;html=1;rounded=0;entryX=0.45;entryY=0.85;entryDx=0;entryDy=0;entryPerimeter=0;fontStyle=0" parent="fcfBr75-EH2accf7WCkU-44" target="fcfBr75-EH2accf7WCkU-63" edge="1">
          <mxGeometry width="50" height="50" relative="1" as="geometry">
            <mxPoint x="49" y="100" as="sourcePoint" />
            <mxPoint x="80" y="100" as="targetPoint" />
          </mxGeometry>
        </mxCell>
        <mxCell id="fcfBr75-EH2accf7WCkU-167" value="" style="endArrow=none;html=1;rounded=0;fontStyle=0" parent="fcfBr75-EH2accf7WCkU-44" edge="1">
          <mxGeometry width="50" height="50" relative="1" as="geometry">
            <mxPoint x="120" y="100" as="sourcePoint" />
            <mxPoint x="200" y="100" as="targetPoint" />
          </mxGeometry>
        </mxCell>
        <mxCell id="fcfBr75-EH2accf7WCkU-174" value="&lt;span&gt;&lt;font style=&quot;font-size: 10px;&quot;&gt;Oui&lt;/font&gt;&lt;/span&gt;" style="text;html=1;strokeColor=none;fillColor=none;align=center;verticalAlign=middle;whiteSpace=wrap;rounded=0;fontStyle=0" parent="fcfBr75-EH2accf7WCkU-44" vertex="1">
          <mxGeometry x="51" y="140" width="30" height="20" as="geometry" />
        </mxCell>
        <mxCell id="fcfBr75-EH2accf7WCkU-175" value="&lt;span&gt;&lt;font style=&quot;font-size: 10px;&quot;&gt;Non&lt;/font&gt;&lt;/span&gt;" style="text;html=1;strokeColor=none;fillColor=none;align=center;verticalAlign=middle;whiteSpace=wrap;rounded=0;fontStyle=0" parent="fcfBr75-EH2accf7WCkU-44" vertex="1">
          <mxGeometry x="190.5" y="140" width="19" height="20" as="geometry" />
        </mxCell>
        <mxCell id="fcfBr75-EH2accf7WCkU-178" value="" style="endArrow=none;html=1;rounded=0;fontStyle=0" parent="fcfBr75-EH2accf7WCkU-44" edge="1">
          <mxGeometry width="50" height="50" relative="1" as="geometry">
            <mxPoint x="-1040" y="450" as="sourcePoint" />
            <mxPoint x="51" y="450" as="targetPoint" />
          </mxGeometry>
        </mxCell>
        <mxCell id="fcfBr75-EH2accf7WCkU-180" value="&lt;span style=&quot;font-size: 10px;&quot;&gt;&lt;span&gt;Autorisation de départ&lt;/span&gt;&lt;/span&gt;" style="shape=parallelogram;html=1;strokeWidth=2;perimeter=parallelogramPerimeter;whiteSpace=wrap;rounded=1;arcSize=12;size=0.23;fontStyle=0" parent="fcfBr75-EH2accf7WCkU-44" vertex="1">
          <mxGeometry x="12" y="350" width="149" height="20" as="geometry" />
        </mxCell>
        <mxCell id="fcfBr75-EH2accf7WCkU-182" value="" style="endArrow=classic;html=1;rounded=0;entryX=0.25;entryY=0;entryDx=0;entryDy=0;fontStyle=0" parent="fcfBr75-EH2accf7WCkU-44" target="fcfBr75-EH2accf7WCkU-180" edge="1">
          <mxGeometry width="50" height="50" relative="1" as="geometry">
            <mxPoint x="49" y="250" as="sourcePoint" />
            <mxPoint x="130" y="250" as="targetPoint" />
          </mxGeometry>
        </mxCell>
        <mxCell id="fcfBr75-EH2accf7WCkU-183" value="" style="endArrow=none;html=1;rounded=0;entryX=0.25;entryY=1;entryDx=0;entryDy=0;fontStyle=0" parent="fcfBr75-EH2accf7WCkU-44" target="fcfBr75-EH2accf7WCkU-180" edge="1">
          <mxGeometry width="50" height="50" relative="1" as="geometry">
            <mxPoint x="50" y="450" as="sourcePoint" />
            <mxPoint x="150" y="380" as="targetPoint" />
          </mxGeometry>
        </mxCell>
        <mxCell id="fcfBr75-EH2accf7WCkU-92" value="" style="endArrow=classic;html=1;rounded=0;exitX=0.5;exitY=1;exitDx=0;exitDy=0;fontStyle=0" parent="WIyWlLk6GJQsqaUBKTNV-1" source="fcfBr75-EH2accf7WCkU-52" edge="1">
          <mxGeometry width="50" height="50" relative="1" as="geometry">
            <mxPoint x="380" y="410" as="sourcePoint" />
            <mxPoint x="380" y="280" as="targetPoint" />
          </mxGeometry>
        </mxCell>
        <mxCell id="fcfBr75-EH2accf7WCkU-105" value="" style="endArrow=none;html=1;rounded=0;exitX=1;exitY=0.5;exitDx=0;exitDy=0;exitPerimeter=0;fontStyle=0" parent="WIyWlLk6GJQsqaUBKTNV-1" source="fcfBr75-EH2accf7WCkU-66" edge="1">
          <mxGeometry width="50" height="50" relative="1" as="geometry">
            <mxPoint x="330" y="340" as="sourcePoint" />
            <mxPoint x="440" y="340" as="targetPoint" />
          </mxGeometry>
        </mxCell>
        <mxCell id="fcfBr75-EH2accf7WCkU-109" value="" style="endArrow=none;html=1;rounded=0;entryX=0;entryY=0.5;entryDx=0;entryDy=0;fontStyle=0" parent="WIyWlLk6GJQsqaUBKTNV-1" target="fcfBr75-EH2accf7WCkU-55" edge="1">
          <mxGeometry width="50" height="50" relative="1" as="geometry">
            <mxPoint x="290" y="380" as="sourcePoint" />
            <mxPoint x="410" y="390" as="targetPoint" />
          </mxGeometry>
        </mxCell>
        <mxCell id="fcfBr75-EH2accf7WCkU-110" value="" style="endArrow=none;html=1;rounded=0;entryX=1;entryY=0.5;entryDx=0;entryDy=0;fontStyle=0" parent="WIyWlLk6GJQsqaUBKTNV-1" target="fcfBr75-EH2accf7WCkU-55" edge="1">
          <mxGeometry width="50" height="50" relative="1" as="geometry">
            <mxPoint x="520" y="380" as="sourcePoint" />
            <mxPoint x="430" y="360" as="targetPoint" />
          </mxGeometry>
        </mxCell>
        <mxCell id="fcfBr75-EH2accf7WCkU-130" value="" style="endArrow=classic;html=1;rounded=0;entryX=0.5;entryY=0;entryDx=0;entryDy=0;fontStyle=0" parent="WIyWlLk6GJQsqaUBKTNV-1" target="fcfBr75-EH2accf7WCkU-55" edge="1">
          <mxGeometry width="50" height="50" relative="1" as="geometry">
            <mxPoint x="440" y="340" as="sourcePoint" />
            <mxPoint x="520" y="320" as="targetPoint" />
          </mxGeometry>
        </mxCell>
        <mxCell id="fcfBr75-EH2accf7WCkU-150" value="" style="endArrow=none;html=1;rounded=0;fontStyle=0" parent="WIyWlLk6GJQsqaUBKTNV-1" edge="1">
          <mxGeometry width="50" height="50" relative="1" as="geometry">
            <mxPoint x="1000" y="300" as="sourcePoint" />
            <mxPoint x="1000" y="240" as="targetPoint" />
          </mxGeometry>
        </mxCell>
        <mxCell id="fcfBr75-EH2accf7WCkU-160" value="" style="endArrow=none;html=1;rounded=0;fontStyle=0" parent="WIyWlLk6GJQsqaUBKTNV-1" edge="1">
          <mxGeometry width="50" height="50" relative="1" as="geometry">
            <mxPoint x="1130" y="570" as="sourcePoint" />
            <mxPoint x="1130" y="190" as="targetPoint" />
          </mxGeometry>
        </mxCell>
        <mxCell id="fcfBr75-EH2accf7WCkU-165" value="" style="endArrow=none;html=1;rounded=0;entryX=0.5;entryY=1;entryDx=0;entryDy=0;fontStyle=0" parent="WIyWlLk6GJQsqaUBKTNV-1" target="fcfBr75-EH2accf7WCkU-80" edge="1">
          <mxGeometry width="50" height="50" relative="1" as="geometry">
            <mxPoint x="1320" y="240" as="sourcePoint" />
            <mxPoint x="1150" y="320" as="targetPoint" />
          </mxGeometry>
        </mxCell>
        <mxCell id="fcfBr75-EH2accf7WCkU-168" value="" style="endArrow=none;html=1;rounded=0;fontStyle=0" parent="WIyWlLk6GJQsqaUBKTNV-1" edge="1">
          <mxGeometry width="50" height="50" relative="1" as="geometry">
            <mxPoint x="1170" y="240" as="sourcePoint" />
            <mxPoint x="1240" y="240" as="targetPoint" />
          </mxGeometry>
        </mxCell>
        <mxCell id="fcfBr75-EH2accf7WCkU-169" value="" style="endArrow=classic;html=1;rounded=0;entryX=0.5;entryY=0;entryDx=0;entryDy=0;fontStyle=0" parent="WIyWlLk6GJQsqaUBKTNV-1" target="fcfBr75-EH2accf7WCkU-81" edge="1">
          <mxGeometry width="50" height="50" relative="1" as="geometry">
            <mxPoint x="1240" y="240" as="sourcePoint" />
            <mxPoint x="1150" y="320" as="targetPoint" />
          </mxGeometry>
        </mxCell>
        <mxCell id="fcfBr75-EH2accf7WCkU-170" value="" style="endArrow=none;html=1;rounded=0;entryX=1;entryY=0.5;entryDx=0;entryDy=0;fontStyle=0" parent="WIyWlLk6GJQsqaUBKTNV-1" target="fcfBr75-EH2accf7WCkU-81" edge="1">
          <mxGeometry width="50" height="50" relative="1" as="geometry">
            <mxPoint x="1390" y="300" as="sourcePoint" />
            <mxPoint x="1270" y="320" as="targetPoint" />
          </mxGeometry>
        </mxCell>
        <mxCell id="fcfBr75-EH2accf7WCkU-171" value="" style="endArrow=none;html=1;rounded=0;fontStyle=0" parent="WIyWlLk6GJQsqaUBKTNV-1" edge="1">
          <mxGeometry width="50" height="50" relative="1" as="geometry">
            <mxPoint x="1180" y="300" as="sourcePoint" />
            <mxPoint x="1200" y="300" as="targetPoint" />
          </mxGeometry>
        </mxCell>
        <mxCell id="fcfBr75-EH2accf7WCkU-172" value="" style="endArrow=classic;html=1;rounded=0;entryX=0.171;entryY=-0.15;entryDx=0;entryDy=0;entryPerimeter=0;fontStyle=0" parent="WIyWlLk6GJQsqaUBKTNV-1" target="fcfBr75-EH2accf7WCkU-82" edge="1">
          <mxGeometry width="50" height="50" relative="1" as="geometry">
            <mxPoint x="1180" y="300" as="sourcePoint" />
            <mxPoint x="1270" y="320" as="targetPoint" />
          </mxGeometry>
        </mxCell>
        <mxCell id="fcfBr75-EH2accf7WCkU-173" value="" style="endArrow=classic;html=1;rounded=0;entryX=0.833;entryY=0;entryDx=0;entryDy=0;entryPerimeter=0;fontStyle=0" parent="WIyWlLk6GJQsqaUBKTNV-1" target="fcfBr75-EH2accf7WCkU-83" edge="1">
          <mxGeometry width="50" height="50" relative="1" as="geometry">
            <mxPoint x="1390" y="300" as="sourcePoint" />
            <mxPoint x="1270" y="320" as="targetPoint" />
          </mxGeometry>
        </mxCell>
        <mxCell id="fcfBr75-EH2accf7WCkU-184" value="Couche non nommée" parent="WIyWlLk6GJQsqaUBKTNV-0" />
        <mxCell id="fcfBr75-EH2accf7WCkU-185" value="EXTERIEUR" style="swimlane;whiteSpace=wrap;html=1;fontStyle=0" parent="fcfBr75-EH2accf7WCkU-184" vertex="1">
          <mxGeometry x="20" y="140" width="210" height="460" as="geometry" />
        </mxCell>
        <mxCell id="fcfBr75-EH2accf7WCkU-187" value="" style="endArrow=none;html=1;rounded=0;exitX=0.75;exitY=1;exitDx=0;exitDy=0;fontStyle=0" parent="fcfBr75-EH2accf7WCkU-185" edge="1">
          <mxGeometry width="50" height="50" relative="1" as="geometry">
            <mxPoint x="130" y="100" as="sourcePoint" />
            <mxPoint x="130" y="170" as="targetPoint" />
          </mxGeometry>
        </mxCell>
        <mxCell id="fcfBr75-EH2accf7WCkU-188" value="" style="endArrow=none;html=1;rounded=0;fontStyle=0" parent="fcfBr75-EH2accf7WCkU-185" edge="1">
          <mxGeometry width="50" height="50" relative="1" as="geometry">
            <mxPoint x="110" y="200" as="sourcePoint" />
            <mxPoint x="110" y="100" as="targetPoint" />
          </mxGeometry>
        </mxCell>
        <mxCell id="fcfBr75-EH2accf7WCkU-189" value="" style="endArrow=classic;html=1;rounded=0;fontStyle=0" parent="fcfBr75-EH2accf7WCkU-185" edge="1">
          <mxGeometry width="50" height="50" relative="1" as="geometry">
            <mxPoint x="130" y="170" as="sourcePoint" />
            <mxPoint x="270" y="170" as="targetPoint" />
          </mxGeometry>
        </mxCell>
        <mxCell id="fcfBr75-EH2accf7WCkU-190" value="" style="endArrow=classic;html=1;rounded=0;entryX=0.5;entryY=1;entryDx=0;entryDy=0;fontStyle=0" parent="fcfBr75-EH2accf7WCkU-185" edge="1">
          <mxGeometry width="50" height="50" relative="1" as="geometry">
            <mxPoint x="100" y="410" as="sourcePoint" />
            <mxPoint x="100" y="100" as="targetPoint" />
          </mxGeometry>
        </mxCell>
        <mxCell id="fcfBr75-EH2accf7WCkU-191" value="" style="endArrow=none;html=1;rounded=0;fontStyle=0" parent="fcfBr75-EH2accf7WCkU-185" edge="1">
          <mxGeometry width="50" height="50" relative="1" as="geometry">
            <mxPoint x="100" y="410" as="sourcePoint" />
            <mxPoint x="700" y="410" as="targetPoint" />
          </mxGeometry>
        </mxCell>
        <mxCell id="fcfBr75-EH2accf7WCkU-192" value="" style="endArrow=none;html=1;rounded=0;entryX=0.333;entryY=1;entryDx=0;entryDy=0;entryPerimeter=0;fontStyle=0" parent="fcfBr75-EH2accf7WCkU-185" edge="1">
          <mxGeometry width="50" height="50" relative="1" as="geometry">
            <mxPoint x="80" y="430" as="sourcePoint" />
            <mxPoint x="79.96000000000004" y="100" as="targetPoint" />
          </mxGeometry>
        </mxCell>
        <mxCell id="fcfBr75-EH2accf7WCkU-193" value="" style="endArrow=none;html=1;rounded=0;fontStyle=0" parent="fcfBr75-EH2accf7WCkU-185" edge="1">
          <mxGeometry width="50" height="50" relative="1" as="geometry">
            <mxPoint x="80" y="430" as="sourcePoint" />
            <mxPoint x="1110" y="430" as="targetPoint" />
          </mxGeometry>
        </mxCell>
        <mxCell id="fcfBr75-EH2accf7WCkU-268" value="&lt;span&gt;&lt;font style=&quot;font-size: 14px;&quot;&gt;EMPLOYE&lt;/font&gt;&lt;/span&gt;" style="rounded=1;whiteSpace=wrap;html=1;dashed=1;fontStyle=0" parent="fcfBr75-EH2accf7WCkU-185" vertex="1">
          <mxGeometry x="9" y="29" width="120" height="60" as="geometry" />
        </mxCell>
        <mxCell id="fcfBr75-EH2accf7WCkU-194" value="RH" style="swimlane;whiteSpace=wrap;html=1;fontStyle=0" parent="fcfBr75-EH2accf7WCkU-184" vertex="1">
          <mxGeometry x="230" y="140" width="370" height="460" as="geometry" />
        </mxCell>
        <mxCell id="fcfBr75-EH2accf7WCkU-195" value="&lt;font style=&quot;font-size: 10px;&quot;&gt;&lt;span&gt;&amp;nbsp; &amp;nbsp; Après les phases de recrutement&lt;/span&gt;&lt;/font&gt;" style="shape=parallelogram;html=1;strokeWidth=2;perimeter=parallelogramPerimeter;whiteSpace=wrap;rounded=1;arcSize=12;size=0.23;fontStyle=0" parent="fcfBr75-EH2accf7WCkU-194" vertex="1">
          <mxGeometry x="70" y="40" width="140" height="30" as="geometry" />
        </mxCell>
        <mxCell id="fcfBr75-EH2accf7WCkU-196" value="&lt;font size=&quot;1&quot; style=&quot;&quot;&gt;&lt;span style=&quot;font-size: 9px;&quot;&gt;T1: ETABLISSEMENT DOCUMENTS DE GARANTIE&lt;/span&gt;&lt;/font&gt;" style="rounded=0;whiteSpace=wrap;html=1;absoluteArcSize=1;arcSize=14;strokeWidth=2;fontStyle=0" parent="fcfBr75-EH2accf7WCkU-194" vertex="1">
          <mxGeometry x="30" y="90" width="240" height="20" as="geometry" />
        </mxCell>
        <mxCell id="fcfBr75-EH2accf7WCkU-197" value="&lt;font style=&quot;font-size: 9px;&quot;&gt;&lt;span&gt;Document&lt;br&gt;&amp;nbsp;garantie&lt;br&gt;&amp;nbsp;signé ?&lt;/span&gt;&lt;/font&gt;" style="rhombus;whiteSpace=wrap;html=1;fontStyle=0" parent="fcfBr75-EH2accf7WCkU-194" vertex="1">
          <mxGeometry x="164" y="210" width="90" height="60" as="geometry" />
        </mxCell>
        <mxCell id="fcfBr75-EH2accf7WCkU-198" value="&lt;font style=&quot;font-size: 10px;&quot;&gt;&lt;span&gt;T2: EDITION DE L&#39;AUTORISATION DE SORTIE&lt;/span&gt;&lt;/font&gt;" style="rounded=0;whiteSpace=wrap;html=1;absoluteArcSize=1;arcSize=14;strokeWidth=2;fontStyle=0" parent="fcfBr75-EH2accf7WCkU-194" vertex="1">
          <mxGeometry x="110" y="290" width="230" height="20" as="geometry" />
        </mxCell>
        <mxCell id="fcfBr75-EH2accf7WCkU-199" value="&lt;font style=&quot;font-size: 10px;&quot;&gt;&lt;span&gt;T3: REFUS&amp;nbsp; DE L&#39;AUTORISATION DE SORTIE&lt;/span&gt;&lt;/font&gt;" style="rounded=0;whiteSpace=wrap;html=1;absoluteArcSize=1;arcSize=14;strokeWidth=2;fontStyle=0" parent="fcfBr75-EH2accf7WCkU-194" vertex="1">
          <mxGeometry y="320" width="240" height="20" as="geometry" />
        </mxCell>
        <mxCell id="fcfBr75-EH2accf7WCkU-200" value="&lt;font style=&quot;font-size: 9px;&quot;&gt;D1&lt;/font&gt;" style="strokeWidth=2;html=1;shape=mxgraph.flowchart.document2;whiteSpace=wrap;size=0.25;fontStyle=0" parent="fcfBr75-EH2accf7WCkU-194" vertex="1">
          <mxGeometry x="60" y="190" width="20" height="20" as="geometry" />
        </mxCell>
        <mxCell id="fcfBr75-EH2accf7WCkU-201" value="&lt;font style=&quot;font-size: 9px;&quot;&gt;&lt;span&gt;D2&lt;/span&gt;&lt;/font&gt;" style="strokeWidth=2;html=1;shape=mxgraph.flowchart.document2;whiteSpace=wrap;size=0.25;fontStyle=0" parent="fcfBr75-EH2accf7WCkU-194" vertex="1">
          <mxGeometry x="60" y="159" width="20" height="20" as="geometry" />
        </mxCell>
        <mxCell id="fcfBr75-EH2accf7WCkU-202" value="&lt;font style=&quot;font-size: 9px;&quot;&gt;D3&lt;/font&gt;" style="strokeWidth=2;html=1;shape=mxgraph.flowchart.document2;whiteSpace=wrap;size=0.25;fontStyle=0" parent="fcfBr75-EH2accf7WCkU-194" vertex="1">
          <mxGeometry x="300" y="340" width="20" height="20" as="geometry" />
        </mxCell>
        <mxCell id="fcfBr75-EH2accf7WCkU-203" value="" style="endArrow=classic;html=1;rounded=0;exitX=0.5;exitY=1;exitDx=0;exitDy=0;fontStyle=0" parent="fcfBr75-EH2accf7WCkU-194" source="fcfBr75-EH2accf7WCkU-195" edge="1">
          <mxGeometry width="50" height="50" relative="1" as="geometry">
            <mxPoint x="160" y="240" as="sourcePoint" />
            <mxPoint x="140" y="90" as="targetPoint" />
          </mxGeometry>
        </mxCell>
        <mxCell id="fcfBr75-EH2accf7WCkU-204" value="&lt;span&gt;&lt;font style=&quot;font-size: 10px;&quot;&gt;D1&lt;/font&gt;&lt;/span&gt;" style="strokeWidth=2;html=1;shape=mxgraph.flowchart.document2;whiteSpace=wrap;size=0.25;fontStyle=0" parent="fcfBr75-EH2accf7WCkU-194" vertex="1">
          <mxGeometry x="140" y="139" width="20" height="20" as="geometry" />
        </mxCell>
        <mxCell id="fcfBr75-EH2accf7WCkU-205" value="" style="endArrow=classic;html=1;rounded=0;entryX=0;entryY=0.5;entryDx=0;entryDy=0;entryPerimeter=0;fontStyle=0" parent="fcfBr75-EH2accf7WCkU-194" target="fcfBr75-EH2accf7WCkU-200" edge="1">
          <mxGeometry width="50" height="50" relative="1" as="geometry">
            <mxPoint x="-100" y="200" as="sourcePoint" />
            <mxPoint x="50" y="200" as="targetPoint" />
          </mxGeometry>
        </mxCell>
        <mxCell id="fcfBr75-EH2accf7WCkU-206" value="&lt;font style=&quot;font-size: 10px;&quot;&gt;&lt;span&gt;Oui&lt;/span&gt;&lt;/font&gt;" style="text;html=1;strokeColor=none;fillColor=none;align=center;verticalAlign=middle;whiteSpace=wrap;rounded=0;fontStyle=0" parent="fcfBr75-EH2accf7WCkU-194" vertex="1">
          <mxGeometry x="254" y="220" width="16" height="20" as="geometry" />
        </mxCell>
        <mxCell id="fcfBr75-EH2accf7WCkU-207" value="&lt;font style=&quot;font-size: 10px;&quot;&gt;&lt;span&gt;Non&lt;/span&gt;&lt;/font&gt;" style="text;html=1;strokeColor=none;fillColor=none;align=center;verticalAlign=middle;whiteSpace=wrap;rounded=0;fontStyle=0" parent="fcfBr75-EH2accf7WCkU-194" vertex="1">
          <mxGeometry x="144" y="220" width="16" height="20" as="geometry" />
        </mxCell>
        <mxCell id="fcfBr75-EH2accf7WCkU-208" value="" style="endArrow=none;html=1;rounded=0;fontStyle=0" parent="fcfBr75-EH2accf7WCkU-194" edge="1">
          <mxGeometry width="50" height="50" relative="1" as="geometry">
            <mxPoint x="80" y="168.5" as="sourcePoint" />
            <mxPoint x="310" y="169" as="targetPoint" />
          </mxGeometry>
        </mxCell>
        <mxCell id="fcfBr75-EH2accf7WCkU-209" value="" style="endArrow=classic;html=1;rounded=0;fontStyle=0" parent="fcfBr75-EH2accf7WCkU-194" edge="1">
          <mxGeometry width="50" height="50" relative="1" as="geometry">
            <mxPoint x="310" y="170" as="sourcePoint" />
            <mxPoint x="310" y="290" as="targetPoint" />
          </mxGeometry>
        </mxCell>
        <mxCell id="fcfBr75-EH2accf7WCkU-210" value="" style="endArrow=classic;html=1;rounded=0;fontStyle=0" parent="fcfBr75-EH2accf7WCkU-194" edge="1">
          <mxGeometry width="50" height="50" relative="1" as="geometry">
            <mxPoint x="290" y="240" as="sourcePoint" />
            <mxPoint x="290" y="290" as="targetPoint" />
          </mxGeometry>
        </mxCell>
        <mxCell id="fcfBr75-EH2accf7WCkU-211" value="" style="endArrow=classic;html=1;rounded=0;entryX=0.25;entryY=0;entryDx=0;entryDy=0;fontStyle=0" parent="fcfBr75-EH2accf7WCkU-194" target="fcfBr75-EH2accf7WCkU-199" edge="1">
          <mxGeometry width="50" height="50" relative="1" as="geometry">
            <mxPoint x="60" y="240" as="sourcePoint" />
            <mxPoint x="59" y="320" as="targetPoint" />
          </mxGeometry>
        </mxCell>
        <mxCell id="fcfBr75-EH2accf7WCkU-212" value="" style="endArrow=classic;html=1;rounded=0;fontStyle=0" parent="fcfBr75-EH2accf7WCkU-194" edge="1">
          <mxGeometry width="50" height="50" relative="1" as="geometry">
            <mxPoint x="311" y="310" as="sourcePoint" />
            <mxPoint x="311" y="340" as="targetPoint" />
          </mxGeometry>
        </mxCell>
        <mxCell id="fcfBr75-EH2accf7WCkU-213" value="" style="endArrow=none;html=1;rounded=0;exitX=1;exitY=0.5;exitDx=0;exitDy=0;exitPerimeter=0;fontStyle=0" parent="fcfBr75-EH2accf7WCkU-194" source="fcfBr75-EH2accf7WCkU-202" edge="1">
          <mxGeometry width="50" height="50" relative="1" as="geometry">
            <mxPoint x="360" y="350" as="sourcePoint" />
            <mxPoint x="360" y="350" as="targetPoint" />
          </mxGeometry>
        </mxCell>
        <mxCell id="fcfBr75-EH2accf7WCkU-214" value="" style="endArrow=none;html=1;rounded=0;fontStyle=0" parent="fcfBr75-EH2accf7WCkU-194" edge="1">
          <mxGeometry width="50" height="50" relative="1" as="geometry">
            <mxPoint x="360" y="350" as="sourcePoint" />
            <mxPoint x="360" y="50" as="targetPoint" />
          </mxGeometry>
        </mxCell>
        <mxCell id="fcfBr75-EH2accf7WCkU-215" value="" style="endArrow=none;html=1;rounded=0;fontStyle=0" parent="fcfBr75-EH2accf7WCkU-194" edge="1">
          <mxGeometry width="50" height="50" relative="1" as="geometry">
            <mxPoint x="90" y="400" as="sourcePoint" />
            <mxPoint x="90" y="340" as="targetPoint" />
          </mxGeometry>
        </mxCell>
        <mxCell id="fcfBr75-EH2accf7WCkU-216" value="" style="endArrow=none;html=1;rounded=0;fontStyle=0" parent="fcfBr75-EH2accf7WCkU-194" edge="1">
          <mxGeometry width="50" height="50" relative="1" as="geometry">
            <mxPoint x="90" y="400" as="sourcePoint" />
            <mxPoint x="390" y="400" as="targetPoint" />
          </mxGeometry>
        </mxCell>
        <mxCell id="fcfBr75-EH2accf7WCkU-217" value="RESPONSABLE INFRASTRUCTURE" style="swimlane;whiteSpace=wrap;html=1;fontStyle=0" parent="fcfBr75-EH2accf7WCkU-184" vertex="1">
          <mxGeometry x="600" y="140" width="250" height="460" as="geometry" />
        </mxCell>
        <mxCell id="fcfBr75-EH2accf7WCkU-218" value="&lt;font style=&quot;font-size: 9px;&quot;&gt;&lt;span&gt;D3&lt;/span&gt;&lt;/font&gt;" style="strokeWidth=2;html=1;shape=mxgraph.flowchart.document2;whiteSpace=wrap;size=0.25;fontStyle=0" parent="fcfBr75-EH2accf7WCkU-217" vertex="1">
          <mxGeometry x="86" y="40" width="20" height="20" as="geometry" />
        </mxCell>
        <mxCell id="fcfBr75-EH2accf7WCkU-219" value="&lt;font style=&quot;font-size: 10px;&quot;&gt;&lt;span&gt;T4: DEMANDE DE L&#39;ACTIF INFORMATIQUE&lt;/span&gt;&lt;/font&gt;" style="rounded=0;whiteSpace=wrap;html=1;absoluteArcSize=1;arcSize=14;strokeWidth=2;fontStyle=0" parent="fcfBr75-EH2accf7WCkU-217" vertex="1">
          <mxGeometry x="6" y="100" width="240" height="20" as="geometry" />
        </mxCell>
        <mxCell id="fcfBr75-EH2accf7WCkU-220" value="&lt;span style=&quot;font-size: 10px;&quot;&gt;&lt;span&gt;Actif attribué&lt;/span&gt;&lt;/span&gt;" style="shape=parallelogram;html=1;strokeWidth=2;perimeter=parallelogramPerimeter;whiteSpace=wrap;rounded=1;arcSize=12;size=0.23;fontStyle=0" parent="fcfBr75-EH2accf7WCkU-217" vertex="1">
          <mxGeometry x="55" y="150" width="140" height="20" as="geometry" />
        </mxCell>
        <mxCell id="fcfBr75-EH2accf7WCkU-221" value="&lt;font style=&quot;font-size: 10px;&quot;&gt;&lt;span&gt;T6: REMISE DE L;ACTIF INFORMATIQUE&lt;/span&gt;&lt;/font&gt;" style="rounded=0;whiteSpace=wrap;html=1;absoluteArcSize=1;arcSize=14;strokeWidth=2;fontStyle=0" parent="fcfBr75-EH2accf7WCkU-217" vertex="1">
          <mxGeometry x="36" y="210" width="204" height="20" as="geometry" />
        </mxCell>
        <mxCell id="fcfBr75-EH2accf7WCkU-222" value="" style="endArrow=classic;html=1;rounded=0;entryX=0;entryY=0.5;entryDx=0;entryDy=0;entryPerimeter=0;fontStyle=0" parent="fcfBr75-EH2accf7WCkU-217" target="fcfBr75-EH2accf7WCkU-218" edge="1">
          <mxGeometry width="50" height="50" relative="1" as="geometry">
            <mxPoint x="-10" y="50" as="sourcePoint" />
            <mxPoint x="66" y="25" as="targetPoint" />
          </mxGeometry>
        </mxCell>
        <mxCell id="fcfBr75-EH2accf7WCkU-223" value="" style="endArrow=classic;html=1;rounded=0;fontStyle=0" parent="fcfBr75-EH2accf7WCkU-217" edge="1">
          <mxGeometry width="50" height="50" relative="1" as="geometry">
            <mxPoint x="20" y="400" as="sourcePoint" />
            <mxPoint x="20" y="120" as="targetPoint" />
          </mxGeometry>
        </mxCell>
        <mxCell id="fcfBr75-EH2accf7WCkU-224" value="" style="endArrow=classic;html=1;rounded=0;exitX=0.65;exitY=0.95;exitDx=0;exitDy=0;exitPerimeter=0;fontStyle=0" parent="fcfBr75-EH2accf7WCkU-217" edge="1">
          <mxGeometry width="50" height="50" relative="1" as="geometry">
            <mxPoint x="99" y="57" as="sourcePoint" />
            <mxPoint x="100" y="100" as="targetPoint" />
          </mxGeometry>
        </mxCell>
        <mxCell id="fcfBr75-EH2accf7WCkU-225" value="" style="endArrow=classic;html=1;rounded=0;entryX=0.407;entryY=-0.05;entryDx=0;entryDy=0;entryPerimeter=0;fontStyle=0" parent="fcfBr75-EH2accf7WCkU-217" target="fcfBr75-EH2accf7WCkU-221" edge="1">
          <mxGeometry width="50" height="50" relative="1" as="geometry">
            <mxPoint x="119" y="170" as="sourcePoint" />
            <mxPoint x="190" y="180" as="targetPoint" />
          </mxGeometry>
        </mxCell>
        <mxCell id="fcfBr75-EH2accf7WCkU-226" value="" style="endArrow=none;html=1;rounded=0;fontStyle=0" parent="fcfBr75-EH2accf7WCkU-217" edge="1">
          <mxGeometry width="50" height="50" relative="1" as="geometry">
            <mxPoint x="120" y="410" as="sourcePoint" />
            <mxPoint x="121" y="230" as="targetPoint" />
          </mxGeometry>
        </mxCell>
        <mxCell id="fcfBr75-EH2accf7WCkU-227" value="COMPTABLE" style="swimlane;whiteSpace=wrap;html=1;fontStyle=0" parent="fcfBr75-EH2accf7WCkU-184" vertex="1">
          <mxGeometry x="850" y="140" width="270" height="460" as="geometry" />
        </mxCell>
        <mxCell id="fcfBr75-EH2accf7WCkU-228" value="&lt;font style=&quot;font-size: 10px;&quot;&gt;&lt;span&gt;T5: TRANSMISSION DE L&#39;ACTIF INFORMATIQUE&lt;/span&gt;&lt;/font&gt;" style="rounded=0;whiteSpace=wrap;html=1;absoluteArcSize=1;arcSize=14;strokeWidth=2;fontStyle=0" parent="fcfBr75-EH2accf7WCkU-227" vertex="1">
          <mxGeometry x="26" y="80" width="240" height="20" as="geometry" />
        </mxCell>
        <mxCell id="fcfBr75-EH2accf7WCkU-229" value="" style="endArrow=none;html=1;rounded=0;exitX=1;exitY=0.5;exitDx=0;exitDy=0;fontStyle=0" parent="fcfBr75-EH2accf7WCkU-227" source="fcfBr75-EH2accf7WCkU-219" edge="1">
          <mxGeometry width="50" height="50" relative="1" as="geometry">
            <mxPoint x="10" y="190" as="sourcePoint" />
            <mxPoint x="10" y="110" as="targetPoint" />
          </mxGeometry>
        </mxCell>
        <mxCell id="fcfBr75-EH2accf7WCkU-230" value="" style="endArrow=none;html=1;rounded=0;fontStyle=0" parent="fcfBr75-EH2accf7WCkU-227" edge="1">
          <mxGeometry width="50" height="50" relative="1" as="geometry">
            <mxPoint x="10" y="110" as="sourcePoint" />
            <mxPoint x="10" y="40" as="targetPoint" />
          </mxGeometry>
        </mxCell>
        <mxCell id="fcfBr75-EH2accf7WCkU-231" value="" style="endArrow=none;html=1;rounded=0;fontStyle=0" parent="fcfBr75-EH2accf7WCkU-227" edge="1">
          <mxGeometry width="50" height="50" relative="1" as="geometry">
            <mxPoint x="10" y="40" as="sourcePoint" />
            <mxPoint x="130" y="40" as="targetPoint" />
          </mxGeometry>
        </mxCell>
        <mxCell id="fcfBr75-EH2accf7WCkU-232" value="" style="endArrow=classic;html=1;rounded=0;entryX=0.433;entryY=0;entryDx=0;entryDy=0;entryPerimeter=0;fontStyle=0" parent="fcfBr75-EH2accf7WCkU-227" target="fcfBr75-EH2accf7WCkU-228" edge="1">
          <mxGeometry width="50" height="50" relative="1" as="geometry">
            <mxPoint x="130" y="40" as="sourcePoint" />
            <mxPoint x="190" y="20" as="targetPoint" />
          </mxGeometry>
        </mxCell>
        <mxCell id="fcfBr75-EH2accf7WCkU-233" value="DSI" style="swimlane;whiteSpace=wrap;html=1;fontStyle=0" parent="fcfBr75-EH2accf7WCkU-184" vertex="1">
          <mxGeometry x="1120" y="140" width="320" height="460" as="geometry" />
        </mxCell>
        <mxCell id="fcfBr75-EH2accf7WCkU-234" value="&lt;span style=&quot;font-size: 10px;&quot;&gt;&lt;span&gt;Periode de congés&lt;/span&gt;&lt;/span&gt;" style="shape=parallelogram;html=1;strokeWidth=2;perimeter=parallelogramPerimeter;whiteSpace=wrap;rounded=1;arcSize=12;size=0.23;fontStyle=0" parent="fcfBr75-EH2accf7WCkU-233" vertex="1">
          <mxGeometry x="130" y="40" width="140" height="20" as="geometry" />
        </mxCell>
        <mxCell id="fcfBr75-EH2accf7WCkU-235" value="&lt;font size=&quot;1&quot;&gt;&lt;span&gt;Départ avec actif?&lt;/span&gt;&lt;/font&gt;" style="rhombus;whiteSpace=wrap;html=1;fontStyle=0" parent="fcfBr75-EH2accf7WCkU-233" vertex="1">
          <mxGeometry x="81" y="130" width="80" height="60" as="geometry" />
        </mxCell>
        <mxCell id="fcfBr75-EH2accf7WCkU-236" value="&lt;font style=&quot;font-size: 9px;&quot;&gt;&lt;span&gt;D5&lt;/span&gt;&lt;/font&gt;" style="strokeWidth=2;html=1;shape=mxgraph.flowchart.document2;whiteSpace=wrap;size=0.25;fontStyle=0" parent="fcfBr75-EH2accf7WCkU-233" vertex="1">
          <mxGeometry x="40" y="40" width="20" height="20" as="geometry" />
        </mxCell>
        <mxCell id="fcfBr75-EH2accf7WCkU-237" value="&lt;span style=&quot;&quot;&gt;&lt;font style=&quot;font-size: 10px;&quot;&gt;T7: AUTORISATION DE DEPART AVEC&amp;nbsp; L&#39;ACTIF&lt;/font&gt;&lt;/span&gt;" style="rounded=0;whiteSpace=wrap;html=1;absoluteArcSize=1;arcSize=14;strokeWidth=2;fontStyle=0" parent="fcfBr75-EH2accf7WCkU-233" vertex="1">
          <mxGeometry x="20" y="230" width="240" height="20" as="geometry" />
        </mxCell>
        <mxCell id="fcfBr75-EH2accf7WCkU-238" value="&lt;font style=&quot;font-size: 10px;&quot;&gt;&lt;span&gt;T8: REFUS DE DEPART AVEC L&#39;ACTIF&lt;/span&gt;&lt;/font&gt;" style="rounded=0;whiteSpace=wrap;html=1;absoluteArcSize=1;arcSize=14;strokeWidth=2;fontStyle=0" parent="fcfBr75-EH2accf7WCkU-233" vertex="1">
          <mxGeometry x="70" y="290" width="240" height="20" as="geometry" />
        </mxCell>
        <mxCell id="fcfBr75-EH2accf7WCkU-239" value="" style="endArrow=classic;html=1;rounded=0;entryX=0;entryY=0.5;entryDx=0;entryDy=0;entryPerimeter=0;fontStyle=0" parent="fcfBr75-EH2accf7WCkU-233" target="fcfBr75-EH2accf7WCkU-236" edge="1">
          <mxGeometry width="50" height="50" relative="1" as="geometry">
            <mxPoint x="10" y="50" as="sourcePoint" />
            <mxPoint x="120" y="260" as="targetPoint" />
          </mxGeometry>
        </mxCell>
        <mxCell id="fcfBr75-EH2accf7WCkU-240" value="" style="endArrow=none;html=1;rounded=0;entryX=0.45;entryY=0.85;entryDx=0;entryDy=0;entryPerimeter=0;fontStyle=0" parent="fcfBr75-EH2accf7WCkU-233" target="fcfBr75-EH2accf7WCkU-236" edge="1">
          <mxGeometry width="50" height="50" relative="1" as="geometry">
            <mxPoint x="49" y="100" as="sourcePoint" />
            <mxPoint x="80" y="100" as="targetPoint" />
          </mxGeometry>
        </mxCell>
        <mxCell id="fcfBr75-EH2accf7WCkU-241" value="" style="endArrow=none;html=1;rounded=0;fontStyle=0" parent="fcfBr75-EH2accf7WCkU-233" edge="1">
          <mxGeometry width="50" height="50" relative="1" as="geometry">
            <mxPoint x="120" y="100" as="sourcePoint" />
            <mxPoint x="200" y="100" as="targetPoint" />
          </mxGeometry>
        </mxCell>
        <mxCell id="fcfBr75-EH2accf7WCkU-242" value="&lt;span&gt;&lt;font style=&quot;font-size: 10px;&quot;&gt;Oui&lt;/font&gt;&lt;/span&gt;" style="text;html=1;strokeColor=none;fillColor=none;align=center;verticalAlign=middle;whiteSpace=wrap;rounded=0;fontStyle=0" parent="fcfBr75-EH2accf7WCkU-233" vertex="1">
          <mxGeometry x="51" y="140" width="30" height="20" as="geometry" />
        </mxCell>
        <mxCell id="fcfBr75-EH2accf7WCkU-243" value="&lt;span&gt;&lt;font style=&quot;font-size: 10px;&quot;&gt;Non&lt;/font&gt;&lt;/span&gt;" style="text;html=1;strokeColor=none;fillColor=none;align=center;verticalAlign=middle;whiteSpace=wrap;rounded=0;fontStyle=0" parent="fcfBr75-EH2accf7WCkU-233" vertex="1">
          <mxGeometry x="190.5" y="140" width="19" height="20" as="geometry" />
        </mxCell>
        <mxCell id="fcfBr75-EH2accf7WCkU-244" value="" style="endArrow=none;html=1;rounded=0;fontStyle=0" parent="fcfBr75-EH2accf7WCkU-233" edge="1">
          <mxGeometry width="50" height="50" relative="1" as="geometry">
            <mxPoint x="-1040" y="450" as="sourcePoint" />
            <mxPoint x="51" y="450" as="targetPoint" />
          </mxGeometry>
        </mxCell>
        <mxCell id="fcfBr75-EH2accf7WCkU-245" value="&lt;span style=&quot;font-size: 10px;&quot;&gt;&lt;span&gt;Autorisation de départ&lt;/span&gt;&lt;/span&gt;" style="shape=parallelogram;html=1;strokeWidth=2;perimeter=parallelogramPerimeter;whiteSpace=wrap;rounded=1;arcSize=12;size=0.23;fontStyle=0" parent="fcfBr75-EH2accf7WCkU-233" vertex="1">
          <mxGeometry x="12" y="350" width="149" height="20" as="geometry" />
        </mxCell>
        <mxCell id="fcfBr75-EH2accf7WCkU-246" value="" style="endArrow=classic;html=1;rounded=0;entryX=0.25;entryY=0;entryDx=0;entryDy=0;fontStyle=0" parent="fcfBr75-EH2accf7WCkU-233" target="fcfBr75-EH2accf7WCkU-245" edge="1">
          <mxGeometry width="50" height="50" relative="1" as="geometry">
            <mxPoint x="49" y="250" as="sourcePoint" />
            <mxPoint x="130" y="250" as="targetPoint" />
          </mxGeometry>
        </mxCell>
        <mxCell id="fcfBr75-EH2accf7WCkU-247" value="" style="endArrow=none;html=1;rounded=0;entryX=0.25;entryY=1;entryDx=0;entryDy=0;fontStyle=0" parent="fcfBr75-EH2accf7WCkU-233" target="fcfBr75-EH2accf7WCkU-245" edge="1">
          <mxGeometry width="50" height="50" relative="1" as="geometry">
            <mxPoint x="50" y="450" as="sourcePoint" />
            <mxPoint x="150" y="380" as="targetPoint" />
          </mxGeometry>
        </mxCell>
        <mxCell id="fcfBr75-EH2accf7WCkU-248" value="" style="endArrow=classic;html=1;rounded=0;exitX=0.5;exitY=1;exitDx=0;exitDy=0;fontStyle=0" parent="fcfBr75-EH2accf7WCkU-184" source="fcfBr75-EH2accf7WCkU-196" edge="1">
          <mxGeometry width="50" height="50" relative="1" as="geometry">
            <mxPoint x="380" y="410" as="sourcePoint" />
            <mxPoint x="380" y="280" as="targetPoint" />
          </mxGeometry>
        </mxCell>
        <mxCell id="fcfBr75-EH2accf7WCkU-251" value="" style="endArrow=none;html=1;rounded=0;exitX=1;exitY=0.5;exitDx=0;exitDy=0;exitPerimeter=0;fontStyle=0" parent="fcfBr75-EH2accf7WCkU-184" source="fcfBr75-EH2accf7WCkU-200" edge="1">
          <mxGeometry width="50" height="50" relative="1" as="geometry">
            <mxPoint x="330" y="340" as="sourcePoint" />
            <mxPoint x="440" y="340" as="targetPoint" />
          </mxGeometry>
        </mxCell>
        <mxCell id="fcfBr75-EH2accf7WCkU-252" value="" style="endArrow=none;html=1;rounded=0;entryX=0;entryY=0.5;entryDx=0;entryDy=0;fontStyle=0" parent="fcfBr75-EH2accf7WCkU-184" target="fcfBr75-EH2accf7WCkU-197" edge="1">
          <mxGeometry width="50" height="50" relative="1" as="geometry">
            <mxPoint x="290" y="380" as="sourcePoint" />
            <mxPoint x="410" y="390" as="targetPoint" />
          </mxGeometry>
        </mxCell>
        <mxCell id="fcfBr75-EH2accf7WCkU-253" value="" style="endArrow=none;html=1;rounded=0;entryX=1;entryY=0.5;entryDx=0;entryDy=0;fontStyle=0" parent="fcfBr75-EH2accf7WCkU-184" target="fcfBr75-EH2accf7WCkU-197" edge="1">
          <mxGeometry width="50" height="50" relative="1" as="geometry">
            <mxPoint x="520" y="380" as="sourcePoint" />
            <mxPoint x="430" y="360" as="targetPoint" />
          </mxGeometry>
        </mxCell>
        <mxCell id="fcfBr75-EH2accf7WCkU-254" value="" style="endArrow=classic;html=1;rounded=0;entryX=0.5;entryY=0;entryDx=0;entryDy=0;fontStyle=0" parent="fcfBr75-EH2accf7WCkU-184" target="fcfBr75-EH2accf7WCkU-197" edge="1">
          <mxGeometry width="50" height="50" relative="1" as="geometry">
            <mxPoint x="440" y="340" as="sourcePoint" />
            <mxPoint x="520" y="320" as="targetPoint" />
          </mxGeometry>
        </mxCell>
        <mxCell id="fcfBr75-EH2accf7WCkU-255" value="" style="endArrow=none;html=1;rounded=0;fontStyle=0" parent="fcfBr75-EH2accf7WCkU-184" edge="1">
          <mxGeometry width="50" height="50" relative="1" as="geometry">
            <mxPoint x="1000" y="300" as="sourcePoint" />
            <mxPoint x="1000" y="240" as="targetPoint" />
          </mxGeometry>
        </mxCell>
        <mxCell id="fcfBr75-EH2accf7WCkU-257" value="" style="endArrow=none;html=1;rounded=0;fontStyle=0" parent="fcfBr75-EH2accf7WCkU-184" edge="1">
          <mxGeometry width="50" height="50" relative="1" as="geometry">
            <mxPoint x="1130" y="570" as="sourcePoint" />
            <mxPoint x="1130" y="190" as="targetPoint" />
          </mxGeometry>
        </mxCell>
        <mxCell id="fcfBr75-EH2accf7WCkU-258" value="" style="endArrow=none;html=1;rounded=0;entryX=0.5;entryY=1;entryDx=0;entryDy=0;fontStyle=0" parent="fcfBr75-EH2accf7WCkU-184" target="fcfBr75-EH2accf7WCkU-234" edge="1">
          <mxGeometry width="50" height="50" relative="1" as="geometry">
            <mxPoint x="1320" y="240" as="sourcePoint" />
            <mxPoint x="1150" y="320" as="targetPoint" />
          </mxGeometry>
        </mxCell>
        <mxCell id="fcfBr75-EH2accf7WCkU-259" value="" style="endArrow=none;html=1;rounded=0;fontStyle=0" parent="fcfBr75-EH2accf7WCkU-184" edge="1">
          <mxGeometry width="50" height="50" relative="1" as="geometry">
            <mxPoint x="1170" y="240" as="sourcePoint" />
            <mxPoint x="1240" y="240" as="targetPoint" />
          </mxGeometry>
        </mxCell>
        <mxCell id="fcfBr75-EH2accf7WCkU-260" value="" style="endArrow=classic;html=1;rounded=0;entryX=0.5;entryY=0;entryDx=0;entryDy=0;fontStyle=0" parent="fcfBr75-EH2accf7WCkU-184" target="fcfBr75-EH2accf7WCkU-235" edge="1">
          <mxGeometry width="50" height="50" relative="1" as="geometry">
            <mxPoint x="1240" y="240" as="sourcePoint" />
            <mxPoint x="1150" y="320" as="targetPoint" />
          </mxGeometry>
        </mxCell>
        <mxCell id="fcfBr75-EH2accf7WCkU-261" value="" style="endArrow=none;html=1;rounded=0;entryX=1;entryY=0.5;entryDx=0;entryDy=0;fontStyle=0" parent="fcfBr75-EH2accf7WCkU-184" target="fcfBr75-EH2accf7WCkU-235" edge="1">
          <mxGeometry width="50" height="50" relative="1" as="geometry">
            <mxPoint x="1390" y="300" as="sourcePoint" />
            <mxPoint x="1270" y="320" as="targetPoint" />
          </mxGeometry>
        </mxCell>
        <mxCell id="fcfBr75-EH2accf7WCkU-262" value="" style="endArrow=none;html=1;rounded=0;fontStyle=0" parent="fcfBr75-EH2accf7WCkU-184" edge="1">
          <mxGeometry width="50" height="50" relative="1" as="geometry">
            <mxPoint x="1180" y="300" as="sourcePoint" />
            <mxPoint x="1200" y="300" as="targetPoint" />
          </mxGeometry>
        </mxCell>
        <mxCell id="fcfBr75-EH2accf7WCkU-263" value="" style="endArrow=classic;html=1;rounded=0;entryX=0.171;entryY=-0.15;entryDx=0;entryDy=0;entryPerimeter=0;fontStyle=0" parent="fcfBr75-EH2accf7WCkU-184" target="fcfBr75-EH2accf7WCkU-237" edge="1">
          <mxGeometry width="50" height="50" relative="1" as="geometry">
            <mxPoint x="1180" y="300" as="sourcePoint" />
            <mxPoint x="1270" y="320" as="targetPoint" />
          </mxGeometry>
        </mxCell>
        <mxCell id="fcfBr75-EH2accf7WCkU-264" value="" style="endArrow=classic;html=1;rounded=0;entryX=0.833;entryY=0;entryDx=0;entryDy=0;entryPerimeter=0;fontStyle=0" parent="fcfBr75-EH2accf7WCkU-184" target="fcfBr75-EH2accf7WCkU-238" edge="1">
          <mxGeometry width="50" height="50" relative="1" as="geometry">
            <mxPoint x="1390" y="300" as="sourcePoint" />
            <mxPoint x="1270" y="320" as="targetPoint" />
          </mxGeometry>
        </mxCell>
        <mxCell id="fcfBr75-EH2accf7WCkU-266" value="Couche non nommée" parent="WIyWlLk6GJQsqaUBKTNV-0" />
        <mxCell id="fcfBr75-EH2accf7WCkU-267" value="EXTERIEUR" style="swimlane;whiteSpace=wrap;html=1;fontStyle=0" parent="fcfBr75-EH2accf7WCkU-266" vertex="1">
          <mxGeometry x="20" y="140" width="210" height="460" as="geometry" />
        </mxCell>
        <mxCell id="fcfBr75-EH2accf7WCkU-269" value="" style="endArrow=none;html=1;rounded=0;exitX=0.75;exitY=1;exitDx=0;exitDy=0;fontStyle=0" parent="fcfBr75-EH2accf7WCkU-267" source="fcfBr75-EH2accf7WCkU-268" edge="1">
          <mxGeometry width="50" height="50" relative="1" as="geometry">
            <mxPoint x="120" y="240" as="sourcePoint" />
            <mxPoint x="130" y="170" as="targetPoint" />
          </mxGeometry>
        </mxCell>
        <mxCell id="fcfBr75-EH2accf7WCkU-270" value="" style="endArrow=none;html=1;rounded=0;fontStyle=0" parent="fcfBr75-EH2accf7WCkU-267" edge="1">
          <mxGeometry width="50" height="50" relative="1" as="geometry">
            <mxPoint x="110" y="200" as="sourcePoint" />
            <mxPoint x="110" y="100" as="targetPoint" />
          </mxGeometry>
        </mxCell>
        <mxCell id="fcfBr75-EH2accf7WCkU-271" value="" style="endArrow=classic;html=1;rounded=0;fontStyle=0" parent="fcfBr75-EH2accf7WCkU-267" edge="1">
          <mxGeometry width="50" height="50" relative="1" as="geometry">
            <mxPoint x="130" y="170" as="sourcePoint" />
            <mxPoint x="270" y="170" as="targetPoint" />
          </mxGeometry>
        </mxCell>
        <mxCell id="fcfBr75-EH2accf7WCkU-272" value="" style="endArrow=classic;html=1;rounded=0;entryX=0.5;entryY=1;entryDx=0;entryDy=0;fontStyle=0" parent="fcfBr75-EH2accf7WCkU-267" target="fcfBr75-EH2accf7WCkU-268" edge="1">
          <mxGeometry width="50" height="50" relative="1" as="geometry">
            <mxPoint x="71" y="420" as="sourcePoint" />
            <mxPoint x="100" y="310" as="targetPoint" />
          </mxGeometry>
        </mxCell>
        <mxCell id="fcfBr75-EH2accf7WCkU-273" value="" style="endArrow=none;html=1;rounded=0;fontStyle=0" parent="fcfBr75-EH2accf7WCkU-267" edge="1">
          <mxGeometry width="50" height="50" relative="1" as="geometry">
            <mxPoint x="100" y="410" as="sourcePoint" />
            <mxPoint x="700" y="410" as="targetPoint" />
          </mxGeometry>
        </mxCell>
        <mxCell id="fcfBr75-EH2accf7WCkU-274" value="" style="endArrow=none;html=1;rounded=0;entryX=0.333;entryY=1;entryDx=0;entryDy=0;entryPerimeter=0;fontStyle=0" parent="fcfBr75-EH2accf7WCkU-267" edge="1">
          <mxGeometry width="50" height="50" relative="1" as="geometry">
            <mxPoint x="58" y="421" as="sourcePoint" />
            <mxPoint x="58.000000000000036" y="88" as="targetPoint" />
          </mxGeometry>
        </mxCell>
        <mxCell id="fcfBr75-EH2accf7WCkU-275" value="" style="endArrow=none;html=1;rounded=0;fontStyle=0" parent="fcfBr75-EH2accf7WCkU-267" edge="1">
          <mxGeometry width="50" height="50" relative="1" as="geometry">
            <mxPoint x="80" y="430" as="sourcePoint" />
            <mxPoint x="1110" y="430" as="targetPoint" />
          </mxGeometry>
        </mxCell>
        <mxCell id="fcfBr75-EH2accf7WCkU-347" value="" style="endArrow=classic;html=1;rounded=0;fontStyle=0" parent="fcfBr75-EH2accf7WCkU-267" edge="1">
          <mxGeometry width="50" height="50" relative="1" as="geometry">
            <mxPoint x="14" y="438" as="sourcePoint" />
            <mxPoint x="14" y="88" as="targetPoint" />
          </mxGeometry>
        </mxCell>
        <mxCell id="fcfBr75-EH2accf7WCkU-265" value="" style="endArrow=classic;html=1;rounded=0;fontStyle=0" parent="fcfBr75-EH2accf7WCkU-267" edge="1">
          <mxGeometry width="50" height="50" relative="1" as="geometry">
            <mxPoint x="32" y="438" as="sourcePoint" />
            <mxPoint x="32" y="88" as="targetPoint" />
          </mxGeometry>
        </mxCell>
        <mxCell id="fcfBr75-EH2accf7WCkU-179" value="" style="endArrow=classic;html=1;rounded=0;fontStyle=0" parent="fcfBr75-EH2accf7WCkU-267" edge="1">
          <mxGeometry width="50" height="50" relative="1" as="geometry">
            <mxPoint x="45" y="438" as="sourcePoint" />
            <mxPoint x="45" y="88" as="targetPoint" />
          </mxGeometry>
        </mxCell>
        <mxCell id="fcfBr75-EH2accf7WCkU-331" value="" style="endArrow=classic;html=1;rounded=0;fontStyle=0;entryX=1;entryY=0.5;entryDx=0;entryDy=0;" parent="fcfBr75-EH2accf7WCkU-267" edge="1" target="fcfBr75-EH2accf7WCkU-268">
          <mxGeometry width="50" height="50" relative="1" as="geometry">
            <mxPoint x="181" y="59" as="sourcePoint" />
            <mxPoint x="152" y="53" as="targetPoint" />
          </mxGeometry>
        </mxCell>
        <mxCell id="IzsCXcOI-FF8h6lY9Ohr-0" value="" style="endArrow=none;html=1;rounded=0;" edge="1" parent="fcfBr75-EH2accf7WCkU-267">
          <mxGeometry width="50" height="50" relative="1" as="geometry">
            <mxPoint x="181" y="59" as="sourcePoint" />
            <mxPoint x="177" y="128" as="targetPoint" />
          </mxGeometry>
        </mxCell>
        <mxCell id="fcfBr75-EH2accf7WCkU-276" value="RH" style="swimlane;whiteSpace=wrap;html=1;fontStyle=0" parent="fcfBr75-EH2accf7WCkU-266" vertex="1">
          <mxGeometry x="212" y="140" width="388" height="460" as="geometry" />
        </mxCell>
        <mxCell id="fcfBr75-EH2accf7WCkU-277" value="&lt;font style=&quot;font-size: 10px;&quot;&gt;&lt;span&gt;&amp;nbsp; &amp;nbsp; Après les phases de recrutement&lt;/span&gt;&lt;/font&gt;" style="shape=parallelogram;html=1;strokeWidth=2;perimeter=parallelogramPerimeter;whiteSpace=wrap;rounded=1;arcSize=12;size=0.23;fontStyle=0" parent="fcfBr75-EH2accf7WCkU-276" vertex="1">
          <mxGeometry x="11" y="34" width="140" height="30" as="geometry" />
        </mxCell>
        <mxCell id="fcfBr75-EH2accf7WCkU-278" value="&lt;font size=&quot;1&quot; style=&quot;&quot;&gt;&lt;span style=&quot;font-size: 9px;&quot;&gt;T1: ETABLISSEMENT DOCUMENTS DE GARANTIE&lt;/span&gt;&lt;/font&gt;" style="rounded=0;whiteSpace=wrap;html=1;absoluteArcSize=1;arcSize=14;strokeWidth=2;fontStyle=0" parent="fcfBr75-EH2accf7WCkU-276" vertex="1">
          <mxGeometry x="30" y="90" width="240" height="20" as="geometry" />
        </mxCell>
        <mxCell id="fcfBr75-EH2accf7WCkU-279" value="&lt;font style=&quot;font-size: 9px;&quot;&gt;&lt;span&gt;Document&lt;br&gt;&amp;nbsp;garantie&lt;br&gt;&amp;nbsp;signé ?&lt;/span&gt;&lt;/font&gt;" style="rhombus;whiteSpace=wrap;html=1;fontStyle=0" parent="fcfBr75-EH2accf7WCkU-276" vertex="1">
          <mxGeometry x="164" y="210" width="90" height="60" as="geometry" />
        </mxCell>
        <mxCell id="fcfBr75-EH2accf7WCkU-280" value="&lt;font style=&quot;font-size: 10px;&quot;&gt;&lt;span&gt;T2: EDITION DE L&#39;AUTORISATION DE SORTIE&lt;/span&gt;&lt;/font&gt;" style="rounded=0;whiteSpace=wrap;html=1;absoluteArcSize=1;arcSize=14;strokeWidth=2;fontStyle=0" parent="fcfBr75-EH2accf7WCkU-276" vertex="1">
          <mxGeometry x="110" y="290" width="230" height="20" as="geometry" />
        </mxCell>
        <mxCell id="fcfBr75-EH2accf7WCkU-281" value="&lt;font style=&quot;font-size: 10px;&quot;&gt;&lt;span&gt;T3: REFUS&amp;nbsp; DE L&#39;AUTORISATION DE SORTIE&lt;/span&gt;&lt;/font&gt;" style="rounded=0;whiteSpace=wrap;html=1;absoluteArcSize=1;arcSize=14;strokeWidth=2;fontStyle=0" parent="fcfBr75-EH2accf7WCkU-276" vertex="1">
          <mxGeometry y="320" width="240" height="20" as="geometry" />
        </mxCell>
        <mxCell id="fcfBr75-EH2accf7WCkU-282" value="&lt;font style=&quot;font-size: 9px;&quot;&gt;D1&lt;/font&gt;" style="strokeWidth=2;html=1;shape=mxgraph.flowchart.document2;whiteSpace=wrap;size=0.25;fontStyle=0" parent="fcfBr75-EH2accf7WCkU-276" vertex="1">
          <mxGeometry x="60" y="190" width="20" height="20" as="geometry" />
        </mxCell>
        <mxCell id="fcfBr75-EH2accf7WCkU-283" value="&lt;font style=&quot;font-size: 9px;&quot;&gt;&lt;span&gt;D2&lt;/span&gt;&lt;/font&gt;" style="strokeWidth=2;html=1;shape=mxgraph.flowchart.document2;whiteSpace=wrap;size=0.25;fontStyle=0" parent="fcfBr75-EH2accf7WCkU-276" vertex="1">
          <mxGeometry x="60" y="159" width="20" height="20" as="geometry" />
        </mxCell>
        <mxCell id="fcfBr75-EH2accf7WCkU-284" value="&lt;font style=&quot;font-size: 9px;&quot;&gt;D3&lt;/font&gt;" style="strokeWidth=2;html=1;shape=mxgraph.flowchart.document2;whiteSpace=wrap;size=0.25;fontStyle=0" parent="fcfBr75-EH2accf7WCkU-276" vertex="1">
          <mxGeometry x="300" y="340" width="20" height="20" as="geometry" />
        </mxCell>
        <mxCell id="fcfBr75-EH2accf7WCkU-285" value="" style="endArrow=classic;html=1;rounded=0;exitX=0.5;exitY=1;exitDx=0;exitDy=0;fontStyle=0" parent="fcfBr75-EH2accf7WCkU-276" source="fcfBr75-EH2accf7WCkU-277" edge="1">
          <mxGeometry width="50" height="50" relative="1" as="geometry">
            <mxPoint x="160" y="240" as="sourcePoint" />
            <mxPoint x="140" y="90" as="targetPoint" />
          </mxGeometry>
        </mxCell>
        <mxCell id="fcfBr75-EH2accf7WCkU-286" value="&lt;span&gt;&lt;font style=&quot;font-size: 10px;&quot;&gt;D1&lt;/font&gt;&lt;/span&gt;" style="strokeWidth=2;html=1;shape=mxgraph.flowchart.document2;whiteSpace=wrap;size=0.25;fontStyle=0" parent="fcfBr75-EH2accf7WCkU-276" vertex="1">
          <mxGeometry x="140" y="139" width="20" height="20" as="geometry" />
        </mxCell>
        <mxCell id="fcfBr75-EH2accf7WCkU-287" value="" style="endArrow=classic;html=1;rounded=0;entryX=0;entryY=0.5;entryDx=0;entryDy=0;entryPerimeter=0;fontStyle=0" parent="fcfBr75-EH2accf7WCkU-276" target="fcfBr75-EH2accf7WCkU-282" edge="1">
          <mxGeometry width="50" height="50" relative="1" as="geometry">
            <mxPoint x="-100" y="200" as="sourcePoint" />
            <mxPoint x="50" y="200" as="targetPoint" />
          </mxGeometry>
        </mxCell>
        <mxCell id="fcfBr75-EH2accf7WCkU-288" value="&lt;font style=&quot;font-size: 10px;&quot;&gt;&lt;span&gt;Oui&lt;/span&gt;&lt;/font&gt;" style="text;html=1;strokeColor=none;fillColor=none;align=center;verticalAlign=middle;whiteSpace=wrap;rounded=0;fontStyle=0" parent="fcfBr75-EH2accf7WCkU-276" vertex="1">
          <mxGeometry x="254" y="220" width="16" height="20" as="geometry" />
        </mxCell>
        <mxCell id="fcfBr75-EH2accf7WCkU-289" value="&lt;font style=&quot;font-size: 10px;&quot;&gt;&lt;span&gt;Non&lt;/span&gt;&lt;/font&gt;" style="text;html=1;strokeColor=none;fillColor=none;align=center;verticalAlign=middle;whiteSpace=wrap;rounded=0;fontStyle=0" parent="fcfBr75-EH2accf7WCkU-276" vertex="1">
          <mxGeometry x="144" y="220" width="16" height="20" as="geometry" />
        </mxCell>
        <mxCell id="fcfBr75-EH2accf7WCkU-290" value="" style="endArrow=none;html=1;rounded=0;fontStyle=0" parent="fcfBr75-EH2accf7WCkU-276" edge="1">
          <mxGeometry width="50" height="50" relative="1" as="geometry">
            <mxPoint x="80" y="168.5" as="sourcePoint" />
            <mxPoint x="310" y="169" as="targetPoint" />
          </mxGeometry>
        </mxCell>
        <mxCell id="fcfBr75-EH2accf7WCkU-291" value="" style="endArrow=classic;html=1;rounded=0;fontStyle=0" parent="fcfBr75-EH2accf7WCkU-276" edge="1">
          <mxGeometry width="50" height="50" relative="1" as="geometry">
            <mxPoint x="310" y="170" as="sourcePoint" />
            <mxPoint x="310" y="290" as="targetPoint" />
          </mxGeometry>
        </mxCell>
        <mxCell id="fcfBr75-EH2accf7WCkU-292" value="" style="endArrow=classic;html=1;rounded=0;fontStyle=0" parent="fcfBr75-EH2accf7WCkU-276" edge="1">
          <mxGeometry width="50" height="50" relative="1" as="geometry">
            <mxPoint x="290" y="240" as="sourcePoint" />
            <mxPoint x="290" y="290" as="targetPoint" />
          </mxGeometry>
        </mxCell>
        <mxCell id="fcfBr75-EH2accf7WCkU-293" value="" style="endArrow=classic;html=1;rounded=0;entryX=0.25;entryY=0;entryDx=0;entryDy=0;fontStyle=0" parent="fcfBr75-EH2accf7WCkU-276" target="fcfBr75-EH2accf7WCkU-281" edge="1">
          <mxGeometry width="50" height="50" relative="1" as="geometry">
            <mxPoint x="60" y="240" as="sourcePoint" />
            <mxPoint x="59" y="320" as="targetPoint" />
          </mxGeometry>
        </mxCell>
        <mxCell id="fcfBr75-EH2accf7WCkU-294" value="" style="endArrow=classic;html=1;rounded=0;fontStyle=0" parent="fcfBr75-EH2accf7WCkU-276" edge="1">
          <mxGeometry width="50" height="50" relative="1" as="geometry">
            <mxPoint x="311" y="310" as="sourcePoint" />
            <mxPoint x="311" y="340" as="targetPoint" />
          </mxGeometry>
        </mxCell>
        <mxCell id="fcfBr75-EH2accf7WCkU-295" value="" style="endArrow=none;html=1;rounded=0;exitX=1;exitY=0.5;exitDx=0;exitDy=0;exitPerimeter=0;fontStyle=0" parent="fcfBr75-EH2accf7WCkU-276" source="fcfBr75-EH2accf7WCkU-284" edge="1">
          <mxGeometry width="50" height="50" relative="1" as="geometry">
            <mxPoint x="360" y="350" as="sourcePoint" />
            <mxPoint x="360" y="350" as="targetPoint" />
          </mxGeometry>
        </mxCell>
        <mxCell id="fcfBr75-EH2accf7WCkU-296" value="" style="endArrow=none;html=1;rounded=0;fontStyle=0" parent="fcfBr75-EH2accf7WCkU-276" edge="1">
          <mxGeometry width="50" height="50" relative="1" as="geometry">
            <mxPoint x="360" y="350" as="sourcePoint" />
            <mxPoint x="360" y="50" as="targetPoint" />
          </mxGeometry>
        </mxCell>
        <mxCell id="fcfBr75-EH2accf7WCkU-297" value="" style="endArrow=none;html=1;rounded=0;fontStyle=0" parent="fcfBr75-EH2accf7WCkU-276" edge="1">
          <mxGeometry width="50" height="50" relative="1" as="geometry">
            <mxPoint x="90" y="400" as="sourcePoint" />
            <mxPoint x="90" y="340" as="targetPoint" />
          </mxGeometry>
        </mxCell>
        <mxCell id="fcfBr75-EH2accf7WCkU-298" value="" style="endArrow=none;html=1;rounded=0;fontStyle=0" parent="fcfBr75-EH2accf7WCkU-276" edge="1">
          <mxGeometry width="50" height="50" relative="1" as="geometry">
            <mxPoint x="90" y="400" as="sourcePoint" />
            <mxPoint x="390" y="400" as="targetPoint" />
          </mxGeometry>
        </mxCell>
        <mxCell id="PsXISpSvo08JCzS60TvH-5" value="&lt;font style=&quot;font-size: 9px;&quot;&gt;&lt;span&gt;D2&lt;/span&gt;&lt;/font&gt;" style="strokeWidth=2;html=1;shape=mxgraph.flowchart.document2;whiteSpace=wrap;size=0.25;fontStyle=0" parent="fcfBr75-EH2accf7WCkU-276" vertex="1">
          <mxGeometry x="257" y="332" width="20" height="20" as="geometry" />
        </mxCell>
        <mxCell id="PsXISpSvo08JCzS60TvH-6" value="" style="endArrow=classic;html=1;rounded=0;exitX=0.661;exitY=1;exitDx=0;exitDy=0;exitPerimeter=0;entryX=0.25;entryY=0;entryDx=0;entryDy=0;entryPerimeter=0;fontStyle=0" parent="fcfBr75-EH2accf7WCkU-276" source="fcfBr75-EH2accf7WCkU-280" target="PsXISpSvo08JCzS60TvH-5" edge="1">
          <mxGeometry width="50" height="50" relative="1" as="geometry">
            <mxPoint x="321" y="320" as="sourcePoint" />
            <mxPoint x="321" y="350" as="targetPoint" />
          </mxGeometry>
        </mxCell>
        <mxCell id="PsXISpSvo08JCzS60TvH-7" value="" style="endArrow=none;html=1;rounded=0;fontStyle=0" parent="fcfBr75-EH2accf7WCkU-276" edge="1">
          <mxGeometry width="50" height="50" relative="1" as="geometry">
            <mxPoint x="267" y="366" as="sourcePoint" />
            <mxPoint x="267" y="347" as="targetPoint" />
          </mxGeometry>
        </mxCell>
        <mxCell id="PsXISpSvo08JCzS60TvH-8" value="" style="endArrow=none;html=1;rounded=0;fontStyle=0" parent="fcfBr75-EH2accf7WCkU-276" edge="1">
          <mxGeometry width="50" height="50" relative="1" as="geometry">
            <mxPoint x="247" y="367" as="sourcePoint" />
            <mxPoint x="289" y="367" as="targetPoint" />
            <Array as="points">
              <mxPoint x="268" y="367" />
            </Array>
          </mxGeometry>
        </mxCell>
        <mxCell id="PsXISpSvo08JCzS60TvH-9" value="" style="endArrow=none;html=1;rounded=0;fontStyle=0" parent="fcfBr75-EH2accf7WCkU-276" edge="1">
          <mxGeometry width="50" height="50" relative="1" as="geometry">
            <mxPoint x="242" y="380" as="sourcePoint" />
            <mxPoint x="247" y="367" as="targetPoint" />
          </mxGeometry>
        </mxCell>
        <mxCell id="PsXISpSvo08JCzS60TvH-10" value="" style="endArrow=none;html=1;rounded=0;fontStyle=0" parent="fcfBr75-EH2accf7WCkU-276" edge="1">
          <mxGeometry width="50" height="50" relative="1" as="geometry">
            <mxPoint x="266" y="379" as="sourcePoint" />
            <mxPoint x="268" y="367" as="targetPoint" />
          </mxGeometry>
        </mxCell>
        <mxCell id="PsXISpSvo08JCzS60TvH-11" value="" style="endArrow=none;html=1;rounded=0;fontStyle=0" parent="fcfBr75-EH2accf7WCkU-276" edge="1">
          <mxGeometry width="50" height="50" relative="1" as="geometry">
            <mxPoint x="275" y="380" as="sourcePoint" />
            <mxPoint x="279" y="367" as="targetPoint" />
          </mxGeometry>
        </mxCell>
        <mxCell id="PsXISpSvo08JCzS60TvH-12" value="" style="endArrow=none;html=1;rounded=0;fontStyle=0" parent="fcfBr75-EH2accf7WCkU-276" edge="1">
          <mxGeometry width="50" height="50" relative="1" as="geometry">
            <mxPoint x="284" y="382" as="sourcePoint" />
            <mxPoint x="289" y="367" as="targetPoint" />
          </mxGeometry>
        </mxCell>
        <mxCell id="PsXISpSvo08JCzS60TvH-13" value="" style="endArrow=none;html=1;rounded=0;fontStyle=0" parent="fcfBr75-EH2accf7WCkU-276" edge="1">
          <mxGeometry width="50" height="50" relative="1" as="geometry">
            <mxPoint x="256" y="380" as="sourcePoint" />
            <mxPoint x="260" y="368" as="targetPoint" />
          </mxGeometry>
        </mxCell>
        <mxCell id="IzsCXcOI-FF8h6lY9Ohr-1" value="" style="endArrow=none;html=1;rounded=0;" edge="1" parent="fcfBr75-EH2accf7WCkU-276">
          <mxGeometry width="50" height="50" relative="1" as="geometry">
            <mxPoint x="89" y="195" as="sourcePoint" />
            <mxPoint x="139" y="145" as="targetPoint" />
          </mxGeometry>
        </mxCell>
        <mxCell id="fcfBr75-EH2accf7WCkU-299" value="RESPONSABLE INFRASTRUCTURE" style="swimlane;whiteSpace=wrap;html=1;fontStyle=0" parent="fcfBr75-EH2accf7WCkU-266" vertex="1">
          <mxGeometry x="600" y="140" width="250" height="460" as="geometry" />
        </mxCell>
        <mxCell id="fcfBr75-EH2accf7WCkU-300" value="&lt;font style=&quot;font-size: 9px;&quot;&gt;&lt;span&gt;D3&lt;/span&gt;&lt;/font&gt;" style="strokeWidth=2;html=1;shape=mxgraph.flowchart.document2;whiteSpace=wrap;size=0.25;fontStyle=0" parent="fcfBr75-EH2accf7WCkU-299" vertex="1">
          <mxGeometry x="86" y="40" width="20" height="20" as="geometry" />
        </mxCell>
        <mxCell id="fcfBr75-EH2accf7WCkU-301" value="&lt;font style=&quot;font-size: 10px;&quot;&gt;&lt;span&gt;T4: DEMANDE DE L&#39;ACTIF INFORMATIQUE&lt;/span&gt;&lt;/font&gt;" style="rounded=0;whiteSpace=wrap;html=1;absoluteArcSize=1;arcSize=14;strokeWidth=2;fontStyle=0" parent="fcfBr75-EH2accf7WCkU-299" vertex="1">
          <mxGeometry x="6" y="100" width="240" height="20" as="geometry" />
        </mxCell>
        <mxCell id="fcfBr75-EH2accf7WCkU-302" value="&lt;span style=&quot;font-size: 10px;&quot;&gt;&lt;span&gt;Actif attribué&lt;/span&gt;&lt;/span&gt;" style="shape=parallelogram;html=1;strokeWidth=2;perimeter=parallelogramPerimeter;whiteSpace=wrap;rounded=1;arcSize=12;size=0.23;fontStyle=0" parent="fcfBr75-EH2accf7WCkU-299" vertex="1">
          <mxGeometry x="55" y="150" width="140" height="20" as="geometry" />
        </mxCell>
        <mxCell id="fcfBr75-EH2accf7WCkU-303" value="&lt;font style=&quot;font-size: 10px;&quot;&gt;&lt;span&gt;T6: REMISE DE L&#39;ACTIF INFORMATIQUE&lt;/span&gt;&lt;/font&gt;" style="rounded=0;whiteSpace=wrap;html=1;absoluteArcSize=1;arcSize=14;strokeWidth=2;fontStyle=0" parent="fcfBr75-EH2accf7WCkU-299" vertex="1">
          <mxGeometry x="36" y="210" width="204" height="20" as="geometry" />
        </mxCell>
        <mxCell id="fcfBr75-EH2accf7WCkU-304" value="" style="endArrow=classic;html=1;rounded=0;entryX=0;entryY=0.5;entryDx=0;entryDy=0;entryPerimeter=0;fontStyle=0" parent="fcfBr75-EH2accf7WCkU-299" target="fcfBr75-EH2accf7WCkU-300" edge="1">
          <mxGeometry width="50" height="50" relative="1" as="geometry">
            <mxPoint x="-10" y="50" as="sourcePoint" />
            <mxPoint x="66" y="25" as="targetPoint" />
          </mxGeometry>
        </mxCell>
        <mxCell id="fcfBr75-EH2accf7WCkU-305" value="" style="endArrow=classic;html=1;rounded=0;fontStyle=0" parent="fcfBr75-EH2accf7WCkU-299" edge="1">
          <mxGeometry width="50" height="50" relative="1" as="geometry">
            <mxPoint x="20" y="400" as="sourcePoint" />
            <mxPoint x="20" y="120" as="targetPoint" />
          </mxGeometry>
        </mxCell>
        <mxCell id="fcfBr75-EH2accf7WCkU-306" value="" style="endArrow=classic;html=1;rounded=0;exitX=0.65;exitY=0.95;exitDx=0;exitDy=0;exitPerimeter=0;fontStyle=0" parent="fcfBr75-EH2accf7WCkU-299" edge="1">
          <mxGeometry width="50" height="50" relative="1" as="geometry">
            <mxPoint x="99" y="57" as="sourcePoint" />
            <mxPoint x="100" y="100" as="targetPoint" />
          </mxGeometry>
        </mxCell>
        <mxCell id="fcfBr75-EH2accf7WCkU-307" value="" style="endArrow=classic;html=1;rounded=0;entryX=0.407;entryY=-0.05;entryDx=0;entryDy=0;entryPerimeter=0;fontStyle=0" parent="fcfBr75-EH2accf7WCkU-299" target="fcfBr75-EH2accf7WCkU-303" edge="1">
          <mxGeometry width="50" height="50" relative="1" as="geometry">
            <mxPoint x="119" y="170" as="sourcePoint" />
            <mxPoint x="190" y="180" as="targetPoint" />
          </mxGeometry>
        </mxCell>
        <mxCell id="fcfBr75-EH2accf7WCkU-308" value="" style="endArrow=none;html=1;rounded=0;fontStyle=0" parent="fcfBr75-EH2accf7WCkU-299" edge="1">
          <mxGeometry width="50" height="50" relative="1" as="geometry">
            <mxPoint x="120" y="410" as="sourcePoint" />
            <mxPoint x="121" y="230" as="targetPoint" />
          </mxGeometry>
        </mxCell>
        <mxCell id="PsXISpSvo08JCzS60TvH-0" value="&lt;font style=&quot;font-size: 10px;&quot;&gt;&lt;span&gt;D6&lt;/span&gt;&lt;/font&gt;" style="shape=document;whiteSpace=wrap;html=1;boundedLbl=1;fontStyle=0" parent="fcfBr75-EH2accf7WCkU-299" vertex="1">
          <mxGeometry x="164" y="252" width="20" height="20" as="geometry" />
        </mxCell>
        <mxCell id="PsXISpSvo08JCzS60TvH-4" value="" style="endArrow=classic;startArrow=classic;html=1;rounded=0;fontStyle=0" parent="fcfBr75-EH2accf7WCkU-299" edge="1">
          <mxGeometry width="50" height="50" relative="1" as="geometry">
            <mxPoint x="174" y="252" as="sourcePoint" />
            <mxPoint x="176" y="230" as="targetPoint" />
          </mxGeometry>
        </mxCell>
        <mxCell id="PsXISpSvo08JCzS60TvH-14" value="&lt;font style=&quot;font-size: 9px;&quot;&gt;&lt;span&gt;D3&lt;/span&gt;&lt;/font&gt;" style="strokeWidth=2;html=1;shape=mxgraph.flowchart.document2;whiteSpace=wrap;size=0.25;fontStyle=0" parent="fcfBr75-EH2accf7WCkU-299" vertex="1">
          <mxGeometry x="217" y="133" width="20" height="20" as="geometry" />
        </mxCell>
        <mxCell id="PsXISpSvo08JCzS60TvH-16" value="" style="endArrow=classic;html=1;rounded=0;entryX=0.5;entryY=0;entryDx=0;entryDy=0;entryPerimeter=0;fontStyle=0" parent="fcfBr75-EH2accf7WCkU-299" target="PsXISpSvo08JCzS60TvH-14" edge="1">
          <mxGeometry width="50" height="50" relative="1" as="geometry">
            <mxPoint x="226" y="121" as="sourcePoint" />
            <mxPoint x="276" y="71" as="targetPoint" />
          </mxGeometry>
        </mxCell>
        <mxCell id="PsXISpSvo08JCzS60TvH-17" value="" style="endArrow=none;html=1;rounded=0;fontStyle=0" parent="fcfBr75-EH2accf7WCkU-299" edge="1">
          <mxGeometry width="50" height="50" relative="1" as="geometry">
            <mxPoint x="231" y="159" as="sourcePoint" />
            <mxPoint x="231" y="149" as="targetPoint" />
          </mxGeometry>
        </mxCell>
        <mxCell id="PsXISpSvo08JCzS60TvH-18" value="" style="endArrow=none;html=1;rounded=0;fontStyle=0" parent="fcfBr75-EH2accf7WCkU-299" edge="1">
          <mxGeometry width="50" height="50" relative="1" as="geometry">
            <mxPoint x="215" y="157" as="sourcePoint" />
            <mxPoint x="243" y="157" as="targetPoint" />
          </mxGeometry>
        </mxCell>
        <mxCell id="PsXISpSvo08JCzS60TvH-19" value="" style="endArrow=none;html=1;rounded=0;fontStyle=0" parent="fcfBr75-EH2accf7WCkU-299" edge="1">
          <mxGeometry width="50" height="50" relative="1" as="geometry">
            <mxPoint x="213" y="162" as="sourcePoint" />
            <mxPoint x="216" y="157" as="targetPoint" />
          </mxGeometry>
        </mxCell>
        <mxCell id="PsXISpSvo08JCzS60TvH-20" value="" style="endArrow=none;html=1;rounded=0;fontStyle=0" parent="fcfBr75-EH2accf7WCkU-299" edge="1">
          <mxGeometry width="50" height="50" relative="1" as="geometry">
            <mxPoint x="223" y="163" as="sourcePoint" />
            <mxPoint x="226" y="158" as="targetPoint" />
            <Array as="points" />
          </mxGeometry>
        </mxCell>
        <mxCell id="PsXISpSvo08JCzS60TvH-21" value="" style="endArrow=none;html=1;rounded=0;fontStyle=0" parent="fcfBr75-EH2accf7WCkU-299" edge="1">
          <mxGeometry width="50" height="50" relative="1" as="geometry">
            <mxPoint x="234" y="164" as="sourcePoint" />
            <mxPoint x="236" y="157" as="targetPoint" />
          </mxGeometry>
        </mxCell>
        <mxCell id="PsXISpSvo08JCzS60TvH-22" value="" style="endArrow=none;html=1;rounded=0;fontStyle=0" parent="fcfBr75-EH2accf7WCkU-299" edge="1">
          <mxGeometry width="50" height="50" relative="1" as="geometry">
            <mxPoint x="241" y="166" as="sourcePoint" />
            <mxPoint x="243" y="157" as="targetPoint" />
          </mxGeometry>
        </mxCell>
        <mxCell id="fcfBr75-EH2accf7WCkU-309" value="COMPTABLE" style="swimlane;whiteSpace=wrap;html=1;fontStyle=0" parent="fcfBr75-EH2accf7WCkU-266" vertex="1">
          <mxGeometry x="850" y="140" width="270" height="460" as="geometry" />
        </mxCell>
        <mxCell id="fcfBr75-EH2accf7WCkU-310" value="&lt;font style=&quot;font-size: 10px;&quot;&gt;&lt;span&gt;T5: TRANSMISSION DE L&#39;ACTIF INFORMATIQUE&lt;/span&gt;&lt;/font&gt;" style="rounded=0;whiteSpace=wrap;html=1;absoluteArcSize=1;arcSize=14;strokeWidth=2;fontStyle=0" parent="fcfBr75-EH2accf7WCkU-309" vertex="1">
          <mxGeometry x="26" y="80" width="240" height="20" as="geometry" />
        </mxCell>
        <mxCell id="fcfBr75-EH2accf7WCkU-311" value="" style="endArrow=none;html=1;rounded=0;exitX=1;exitY=0.5;exitDx=0;exitDy=0;fontStyle=0" parent="fcfBr75-EH2accf7WCkU-309" source="fcfBr75-EH2accf7WCkU-301" edge="1">
          <mxGeometry width="50" height="50" relative="1" as="geometry">
            <mxPoint x="10" y="190" as="sourcePoint" />
            <mxPoint x="10" y="110" as="targetPoint" />
          </mxGeometry>
        </mxCell>
        <mxCell id="fcfBr75-EH2accf7WCkU-312" value="" style="endArrow=none;html=1;rounded=0;fontStyle=0" parent="fcfBr75-EH2accf7WCkU-309" edge="1">
          <mxGeometry width="50" height="50" relative="1" as="geometry">
            <mxPoint x="10" y="110" as="sourcePoint" />
            <mxPoint x="10" y="40" as="targetPoint" />
          </mxGeometry>
        </mxCell>
        <mxCell id="fcfBr75-EH2accf7WCkU-313" value="" style="endArrow=none;html=1;rounded=0;fontStyle=0" parent="fcfBr75-EH2accf7WCkU-309" edge="1">
          <mxGeometry width="50" height="50" relative="1" as="geometry">
            <mxPoint x="10" y="40" as="sourcePoint" />
            <mxPoint x="130" y="40" as="targetPoint" />
          </mxGeometry>
        </mxCell>
        <mxCell id="fcfBr75-EH2accf7WCkU-314" value="" style="endArrow=classic;html=1;rounded=0;entryX=0.433;entryY=0;entryDx=0;entryDy=0;entryPerimeter=0;fontStyle=0" parent="fcfBr75-EH2accf7WCkU-309" target="fcfBr75-EH2accf7WCkU-310" edge="1">
          <mxGeometry width="50" height="50" relative="1" as="geometry">
            <mxPoint x="130" y="40" as="sourcePoint" />
            <mxPoint x="190" y="20" as="targetPoint" />
          </mxGeometry>
        </mxCell>
        <mxCell id="fcfBr75-EH2accf7WCkU-338" value="" style="endArrow=classic;html=1;rounded=0;fontStyle=0" parent="fcfBr75-EH2accf7WCkU-309" edge="1">
          <mxGeometry width="50" height="50" relative="1" as="geometry">
            <mxPoint x="150" y="168" as="sourcePoint" />
            <mxPoint x="-80.99999999999989" y="168" as="targetPoint" />
          </mxGeometry>
        </mxCell>
        <mxCell id="fcfBr75-EH2accf7WCkU-315" value="DSI" style="swimlane;whiteSpace=wrap;html=1;fontStyle=0" parent="fcfBr75-EH2accf7WCkU-266" vertex="1">
          <mxGeometry x="1120" y="140" width="320" height="460" as="geometry" />
        </mxCell>
        <mxCell id="fcfBr75-EH2accf7WCkU-316" value="&lt;span style=&quot;font-size: 10px;&quot;&gt;&lt;span&gt;Periode de congés&lt;/span&gt;&lt;/span&gt;" style="shape=parallelogram;html=1;strokeWidth=2;perimeter=parallelogramPerimeter;whiteSpace=wrap;rounded=1;arcSize=12;size=0.23;fontStyle=0" parent="fcfBr75-EH2accf7WCkU-315" vertex="1">
          <mxGeometry x="130" y="40" width="140" height="20" as="geometry" />
        </mxCell>
        <mxCell id="fcfBr75-EH2accf7WCkU-317" value="&lt;font size=&quot;1&quot;&gt;&lt;span&gt;Départ avec actif?&lt;/span&gt;&lt;/font&gt;" style="rhombus;whiteSpace=wrap;html=1;fontStyle=0" parent="fcfBr75-EH2accf7WCkU-315" vertex="1">
          <mxGeometry x="81" y="130" width="80" height="60" as="geometry" />
        </mxCell>
        <mxCell id="fcfBr75-EH2accf7WCkU-318" value="&lt;font style=&quot;font-size: 9px;&quot;&gt;&lt;span&gt;D5&lt;/span&gt;&lt;/font&gt;" style="strokeWidth=2;html=1;shape=mxgraph.flowchart.document2;whiteSpace=wrap;size=0.25;fontStyle=0" parent="fcfBr75-EH2accf7WCkU-315" vertex="1">
          <mxGeometry x="40" y="40" width="20" height="20" as="geometry" />
        </mxCell>
        <mxCell id="fcfBr75-EH2accf7WCkU-319" value="&lt;span style=&quot;&quot;&gt;&lt;font style=&quot;font-size: 10px;&quot;&gt;T7: AUTORISATION DE DEPART AVEC&amp;nbsp; L&#39;ACTIF&lt;/font&gt;&lt;/span&gt;" style="rounded=0;whiteSpace=wrap;html=1;absoluteArcSize=1;arcSize=14;strokeWidth=2;fontStyle=0" parent="fcfBr75-EH2accf7WCkU-315" vertex="1">
          <mxGeometry x="20" y="230" width="240" height="20" as="geometry" />
        </mxCell>
        <mxCell id="fcfBr75-EH2accf7WCkU-320" value="&lt;font style=&quot;font-size: 10px;&quot;&gt;&lt;span&gt;T8: REFUS DE DEPART AVEC L&#39;ACTIF&lt;/span&gt;&lt;/font&gt;" style="rounded=0;whiteSpace=wrap;html=1;absoluteArcSize=1;arcSize=14;strokeWidth=2;fontStyle=0" parent="fcfBr75-EH2accf7WCkU-315" vertex="1">
          <mxGeometry x="70" y="290" width="240" height="20" as="geometry" />
        </mxCell>
        <mxCell id="fcfBr75-EH2accf7WCkU-321" value="" style="endArrow=classic;html=1;rounded=0;entryX=0;entryY=0.5;entryDx=0;entryDy=0;entryPerimeter=0;fontStyle=0" parent="fcfBr75-EH2accf7WCkU-315" target="fcfBr75-EH2accf7WCkU-318" edge="1">
          <mxGeometry width="50" height="50" relative="1" as="geometry">
            <mxPoint x="10" y="50" as="sourcePoint" />
            <mxPoint x="120" y="260" as="targetPoint" />
          </mxGeometry>
        </mxCell>
        <mxCell id="fcfBr75-EH2accf7WCkU-322" value="" style="endArrow=none;html=1;rounded=0;entryX=0.45;entryY=0.85;entryDx=0;entryDy=0;entryPerimeter=0;fontStyle=0" parent="fcfBr75-EH2accf7WCkU-315" target="fcfBr75-EH2accf7WCkU-318" edge="1">
          <mxGeometry width="50" height="50" relative="1" as="geometry">
            <mxPoint x="49" y="100" as="sourcePoint" />
            <mxPoint x="80" y="100" as="targetPoint" />
          </mxGeometry>
        </mxCell>
        <mxCell id="fcfBr75-EH2accf7WCkU-323" value="" style="endArrow=none;html=1;rounded=0;fontStyle=0" parent="fcfBr75-EH2accf7WCkU-315" edge="1">
          <mxGeometry width="50" height="50" relative="1" as="geometry">
            <mxPoint x="120" y="100" as="sourcePoint" />
            <mxPoint x="200" y="100" as="targetPoint" />
          </mxGeometry>
        </mxCell>
        <mxCell id="fcfBr75-EH2accf7WCkU-324" value="&lt;span&gt;&lt;font style=&quot;font-size: 10px;&quot;&gt;Oui&lt;/font&gt;&lt;/span&gt;" style="text;html=1;strokeColor=none;fillColor=none;align=center;verticalAlign=middle;whiteSpace=wrap;rounded=0;fontStyle=0" parent="fcfBr75-EH2accf7WCkU-315" vertex="1">
          <mxGeometry x="51" y="140" width="30" height="20" as="geometry" />
        </mxCell>
        <mxCell id="fcfBr75-EH2accf7WCkU-325" value="&lt;span&gt;&lt;font style=&quot;font-size: 10px;&quot;&gt;Non&lt;/font&gt;&lt;/span&gt;" style="text;html=1;strokeColor=none;fillColor=none;align=center;verticalAlign=middle;whiteSpace=wrap;rounded=0;fontStyle=0" parent="fcfBr75-EH2accf7WCkU-315" vertex="1">
          <mxGeometry x="190.5" y="140" width="19" height="20" as="geometry" />
        </mxCell>
        <mxCell id="fcfBr75-EH2accf7WCkU-326" value="" style="endArrow=none;html=1;rounded=0;fontStyle=0" parent="fcfBr75-EH2accf7WCkU-315" edge="1">
          <mxGeometry width="50" height="50" relative="1" as="geometry">
            <mxPoint x="-1040" y="450" as="sourcePoint" />
            <mxPoint x="51" y="450" as="targetPoint" />
          </mxGeometry>
        </mxCell>
        <mxCell id="fcfBr75-EH2accf7WCkU-327" value="&lt;span style=&quot;font-size: 10px;&quot;&gt;&lt;span&gt;Autorisation de départ&lt;/span&gt;&lt;/span&gt;" style="shape=parallelogram;html=1;strokeWidth=2;perimeter=parallelogramPerimeter;whiteSpace=wrap;rounded=1;arcSize=12;size=0.23;fontStyle=0" parent="fcfBr75-EH2accf7WCkU-315" vertex="1">
          <mxGeometry x="12" y="350" width="149" height="20" as="geometry" />
        </mxCell>
        <mxCell id="fcfBr75-EH2accf7WCkU-328" value="" style="endArrow=classic;html=1;rounded=0;entryX=0.25;entryY=0;entryDx=0;entryDy=0;fontStyle=0" parent="fcfBr75-EH2accf7WCkU-315" target="fcfBr75-EH2accf7WCkU-327" edge="1">
          <mxGeometry width="50" height="50" relative="1" as="geometry">
            <mxPoint x="49" y="250" as="sourcePoint" />
            <mxPoint x="130" y="250" as="targetPoint" />
          </mxGeometry>
        </mxCell>
        <mxCell id="fcfBr75-EH2accf7WCkU-329" value="" style="endArrow=none;html=1;rounded=0;entryX=0.25;entryY=1;entryDx=0;entryDy=0;fontStyle=0" parent="fcfBr75-EH2accf7WCkU-315" target="fcfBr75-EH2accf7WCkU-327" edge="1">
          <mxGeometry width="50" height="50" relative="1" as="geometry">
            <mxPoint x="50" y="450" as="sourcePoint" />
            <mxPoint x="150" y="380" as="targetPoint" />
          </mxGeometry>
        </mxCell>
        <mxCell id="fcfBr75-EH2accf7WCkU-330" value="" style="endArrow=classic;html=1;rounded=0;exitX=0.5;exitY=1;exitDx=0;exitDy=0;fontStyle=0" parent="fcfBr75-EH2accf7WCkU-266" source="fcfBr75-EH2accf7WCkU-278" edge="1">
          <mxGeometry width="50" height="50" relative="1" as="geometry">
            <mxPoint x="380" y="410" as="sourcePoint" />
            <mxPoint x="380" y="280" as="targetPoint" />
          </mxGeometry>
        </mxCell>
        <mxCell id="fcfBr75-EH2accf7WCkU-333" value="" style="endArrow=none;html=1;rounded=0;exitX=1;exitY=0.5;exitDx=0;exitDy=0;exitPerimeter=0;fontStyle=0" parent="fcfBr75-EH2accf7WCkU-266" source="fcfBr75-EH2accf7WCkU-282" edge="1">
          <mxGeometry width="50" height="50" relative="1" as="geometry">
            <mxPoint x="330" y="340" as="sourcePoint" />
            <mxPoint x="440" y="340" as="targetPoint" />
          </mxGeometry>
        </mxCell>
        <mxCell id="fcfBr75-EH2accf7WCkU-334" value="" style="endArrow=none;html=1;rounded=0;entryX=0;entryY=0.5;entryDx=0;entryDy=0;fontStyle=0" parent="fcfBr75-EH2accf7WCkU-266" target="fcfBr75-EH2accf7WCkU-279" edge="1">
          <mxGeometry width="50" height="50" relative="1" as="geometry">
            <mxPoint x="290" y="380" as="sourcePoint" />
            <mxPoint x="410" y="390" as="targetPoint" />
          </mxGeometry>
        </mxCell>
        <mxCell id="fcfBr75-EH2accf7WCkU-335" value="" style="endArrow=none;html=1;rounded=0;entryX=1;entryY=0.5;entryDx=0;entryDy=0;fontStyle=0" parent="fcfBr75-EH2accf7WCkU-266" target="fcfBr75-EH2accf7WCkU-279" edge="1">
          <mxGeometry width="50" height="50" relative="1" as="geometry">
            <mxPoint x="520" y="380" as="sourcePoint" />
            <mxPoint x="430" y="360" as="targetPoint" />
          </mxGeometry>
        </mxCell>
        <mxCell id="fcfBr75-EH2accf7WCkU-336" value="" style="endArrow=classic;html=1;rounded=0;entryX=0.5;entryY=0;entryDx=0;entryDy=0;fontStyle=0" parent="fcfBr75-EH2accf7WCkU-266" target="fcfBr75-EH2accf7WCkU-279" edge="1">
          <mxGeometry width="50" height="50" relative="1" as="geometry">
            <mxPoint x="440" y="340" as="sourcePoint" />
            <mxPoint x="520" y="320" as="targetPoint" />
          </mxGeometry>
        </mxCell>
        <mxCell id="fcfBr75-EH2accf7WCkU-337" value="" style="endArrow=none;html=1;rounded=0;fontStyle=0" parent="fcfBr75-EH2accf7WCkU-266" edge="1">
          <mxGeometry width="50" height="50" relative="1" as="geometry">
            <mxPoint x="1000" y="307" as="sourcePoint" />
            <mxPoint x="1000" y="240" as="targetPoint" />
          </mxGeometry>
        </mxCell>
        <mxCell id="fcfBr75-EH2accf7WCkU-339" value="" style="endArrow=none;html=1;rounded=0;fontStyle=0" parent="fcfBr75-EH2accf7WCkU-266" edge="1">
          <mxGeometry width="50" height="50" relative="1" as="geometry">
            <mxPoint x="1130" y="570" as="sourcePoint" />
            <mxPoint x="1130" y="190" as="targetPoint" />
          </mxGeometry>
        </mxCell>
        <mxCell id="fcfBr75-EH2accf7WCkU-340" value="" style="endArrow=none;html=1;rounded=0;entryX=0.5;entryY=1;entryDx=0;entryDy=0;fontStyle=0" parent="fcfBr75-EH2accf7WCkU-266" target="fcfBr75-EH2accf7WCkU-316" edge="1">
          <mxGeometry width="50" height="50" relative="1" as="geometry">
            <mxPoint x="1320" y="240" as="sourcePoint" />
            <mxPoint x="1150" y="320" as="targetPoint" />
          </mxGeometry>
        </mxCell>
        <mxCell id="fcfBr75-EH2accf7WCkU-341" value="" style="endArrow=none;html=1;rounded=0;fontStyle=0" parent="fcfBr75-EH2accf7WCkU-266" edge="1">
          <mxGeometry width="50" height="50" relative="1" as="geometry">
            <mxPoint x="1170" y="240" as="sourcePoint" />
            <mxPoint x="1240" y="240" as="targetPoint" />
          </mxGeometry>
        </mxCell>
        <mxCell id="fcfBr75-EH2accf7WCkU-342" value="" style="endArrow=classic;html=1;rounded=0;entryX=0.5;entryY=0;entryDx=0;entryDy=0;fontStyle=0" parent="fcfBr75-EH2accf7WCkU-266" target="fcfBr75-EH2accf7WCkU-317" edge="1">
          <mxGeometry width="50" height="50" relative="1" as="geometry">
            <mxPoint x="1240" y="240" as="sourcePoint" />
            <mxPoint x="1150" y="320" as="targetPoint" />
          </mxGeometry>
        </mxCell>
        <mxCell id="fcfBr75-EH2accf7WCkU-343" value="" style="endArrow=none;html=1;rounded=0;entryX=1;entryY=0.5;entryDx=0;entryDy=0;fontStyle=0" parent="fcfBr75-EH2accf7WCkU-266" target="fcfBr75-EH2accf7WCkU-317" edge="1">
          <mxGeometry width="50" height="50" relative="1" as="geometry">
            <mxPoint x="1390" y="300" as="sourcePoint" />
            <mxPoint x="1270" y="320" as="targetPoint" />
          </mxGeometry>
        </mxCell>
        <mxCell id="fcfBr75-EH2accf7WCkU-344" value="" style="endArrow=none;html=1;rounded=0;fontStyle=0" parent="fcfBr75-EH2accf7WCkU-266" edge="1">
          <mxGeometry width="50" height="50" relative="1" as="geometry">
            <mxPoint x="1180" y="300" as="sourcePoint" />
            <mxPoint x="1200" y="300" as="targetPoint" />
          </mxGeometry>
        </mxCell>
        <mxCell id="fcfBr75-EH2accf7WCkU-345" value="" style="endArrow=classic;html=1;rounded=0;entryX=0.171;entryY=-0.15;entryDx=0;entryDy=0;entryPerimeter=0;fontStyle=0" parent="fcfBr75-EH2accf7WCkU-266" target="fcfBr75-EH2accf7WCkU-319" edge="1">
          <mxGeometry width="50" height="50" relative="1" as="geometry">
            <mxPoint x="1180" y="300" as="sourcePoint" />
            <mxPoint x="1270" y="320" as="targetPoint" />
          </mxGeometry>
        </mxCell>
        <mxCell id="fcfBr75-EH2accf7WCkU-346" value="" style="endArrow=classic;html=1;rounded=0;entryX=0.833;entryY=0;entryDx=0;entryDy=0;entryPerimeter=0;fontStyle=0" parent="fcfBr75-EH2accf7WCkU-266" target="fcfBr75-EH2accf7WCkU-320" edge="1">
          <mxGeometry width="50" height="50" relative="1" as="geometry">
            <mxPoint x="1390" y="300" as="sourcePoint" />
            <mxPoint x="1270" y="320" as="targetPoint" />
          </mxGeometry>
        </mxCell>
      </root>
    </mxGraphModel>
  </diagram>
</mxfile>
